<svg width="87" height="70" viewBox="0 0 87 70" fill="none" xmlns="http://www.w3.org/2000/svg">
<g opacity="0.75">
<circle cx="35" cy="35" r="35" fill="#94E6FB" fill-opacity="0.1"/>
<path d="M34.5395 12.0731C30.2668 12.7105 26.8085 16.157 26.1239 20.4533C25.9587 21.5037 25.9587 52.4513 26.1239 53.5018C26.7023 57.1725 29.3698 60.3358 32.8281 61.4689C33.6189 61.7285 33.9848 61.6341 34.2208 61.1266C34.5277 60.4892 34.2916 60.1469 33.194 59.7102C31.1166 58.8722 29.6058 57.503 28.6734 55.6027C27.7291 53.7024 27.7764 54.6821 27.7764 36.8831C27.7764 19.8631 27.7646 20.4061 28.4019 18.8362C29.1927 16.9006 30.9042 15.1891 32.9107 14.3511C34.4451 13.7019 34.0438 13.7137 51.4415 13.7491C69.4883 13.7963 67.9421 13.7137 69.8542 14.7052C70.8457 15.2245 72.1086 16.3104 72.6869 17.1484L73.0292 17.6323L64.413 26.2486L55.8086 34.853H45.8586H35.9087L35.6254 35.1481C35.4601 35.3015 35.3303 35.573 35.3303 35.7382C35.3303 35.9035 35.4601 36.1749 35.6254 36.3284L35.9087 36.6234H44.9616H54.0263L51.1936 39.4798C49.6356 41.0614 48.2664 42.5486 48.1366 42.7846L47.9005 43.2331H41.8574H35.8142L35.5782 43.54C35.2713 43.9295 35.2595 44.3072 35.5546 44.6613L35.7788 44.9446L41.4679 44.98L47.157 45.0154L47.0979 45.2751C47.0743 45.4167 46.7202 47.2108 46.3189 49.2527C45.4927 53.431 45.4455 54.1628 45.9412 55.1896C46.3071 55.9332 47.0625 56.6886 47.7825 57.0309C48.892 57.562 49.5294 57.5148 54.1444 56.5824C58.3817 55.7208 59.0426 55.5201 60.3528 54.7057C60.7659 54.446 63.3861 51.932 67.647 47.6711L74.2922 41.0496L74.2449 47.1872C74.2095 54.0683 74.2213 53.8913 73.3125 55.7444C72.6279 57.1607 71.2116 58.5653 69.7952 59.2735C67.8359 60.2295 69.2877 60.1587 52.4447 60.2295C44.1708 60.2649 37.325 60.3358 37.2424 60.383C36.7467 60.7017 36.8529 61.6105 37.4076 61.8702C37.6201 61.9646 41.6803 62 52.1969 62C68.1074 62 67.7887 62.0118 69.6654 61.2918C71.3414 60.6426 73.1237 59.2381 74.2331 57.6919C74.7997 56.8893 75.3898 55.6145 75.7203 54.4933C75.98 53.5844 75.98 53.4074 76.0272 46.42L76.0626 39.2791L80.7602 34.5579C85.2454 30.0373 85.4696 29.8013 85.8355 28.9633C86.6263 27.2164 86.6027 25.4814 85.7647 23.7581C85.3988 22.9909 85.0683 22.6014 83.4395 20.949C81.7989 19.2966 81.492 19.0369 81.1733 19.0369C80.7248 19.0369 80.2999 19.4618 80.2999 19.9221C80.2999 20.1936 80.6422 20.5949 82.1058 22.1057C84.3484 24.3955 84.5962 24.8204 84.608 26.4138C84.608 27.8656 84.2893 28.5029 82.814 30.0137L81.7281 31.135L76.7944 26.2132L71.8607 21.2795L72.9702 20.17C73.6784 19.4618 74.3158 18.9425 74.7407 18.7182C75.3544 18.4113 75.4961 18.3877 76.7826 18.3877C78.3642 18.3877 78.5767 18.2933 78.5767 17.5497C78.5767 17.0068 78.2462 16.7235 77.5144 16.6055C76.9951 16.5347 75.4725 16.6055 74.8705 16.7235C74.6108 16.7825 74.5046 16.6881 73.9853 15.9563C72.7578 14.2331 70.8339 12.9347 68.5559 12.2856L67.6116 12.0141L51.3824 12.0023C42.4593 11.9905 34.8818 12.0259 34.5395 12.0731ZM75.5787 27.4761L80.477 32.3743L78.8835 33.9678C78.0101 34.8412 77.2429 35.5612 77.1721 35.5612C77.1131 35.5612 74.8587 33.3658 72.1912 30.6983L67.3166 25.8237L68.9336 24.2066C69.8306 23.3096 70.586 22.5778 70.6214 22.5778C70.6568 22.5778 72.8876 24.785 75.5787 27.4761ZM68.3788 44.4725L60.8249 52.0264L55.903 47.0927L50.9693 42.1709L58.5233 34.6169L66.0772 27.063L70.9991 31.9848L75.9328 36.9185L68.3788 44.4725ZM54.6873 48.3675C58.5469 52.2271 59.4321 53.1713 59.2905 53.2775C58.5233 53.7969 57.8741 54.0093 55.8204 54.4342L54.2388 54.7647L51.229 51.7431L48.2074 48.7216L48.5497 47.0691C48.7386 46.1603 48.9746 45.1806 49.0691 44.8974C49.2815 44.3308 49.7064 43.5872 49.8244 43.5872C49.8717 43.5872 52.0552 45.7354 54.6873 48.3675ZM50.0133 53.0179C51.949 54.9536 52.1024 55.1424 51.8428 55.2014C49.3995 55.7798 48.774 55.7562 48.0422 55.0598C47.5583 54.5995 47.3694 54.1864 47.3694 53.549C47.3694 52.9352 47.7235 50.9051 47.8415 50.9051C47.8769 50.9051 48.8566 51.8612 50.0133 53.0179Z" fill="#94E6FB"/>
<path d="M62.8668 38.8896C58.2164 43.54 58.24 43.4928 58.8774 44.1184C59.4911 44.7439 59.4557 44.7675 64.0353 40.188C68.0484 36.1749 68.2608 35.9507 68.2608 35.5376C68.2608 35.0654 67.8477 34.6169 67.3874 34.6169C67.2221 34.6169 65.7586 36.0097 62.8668 38.8896Z" fill="#94E6FB"/>
<path d="M39.0955 19.7333C38.824 19.9457 38.8122 20.0402 38.8122 21.2205C38.8122 22.4008 38.824 22.4952 39.0955 22.7077C39.4496 23.0027 39.9925 22.9909 40.2876 22.6958C40.4882 22.4952 40.5236 22.3063 40.5236 21.2205C40.5236 20.1346 40.4882 19.9457 40.2876 19.7451C39.9925 19.45 39.4496 19.4382 39.0955 19.7333Z" fill="#94E6FB"/>
<path d="M61.6983 19.7569C61.5095 19.9693 61.4741 20.1936 61.4741 21.2205C61.4741 22.625 61.6275 22.9319 62.3239 22.9319C63.0439 22.9319 63.1855 22.6368 63.1855 21.2205C63.1855 20.1346 63.1501 19.9457 62.9494 19.7451C62.6308 19.4264 61.9934 19.4382 61.6983 19.7569Z" fill="#94E6FB"/>
<path d="M50.1785 20.2172C48.5379 20.7129 47.511 22.5188 47.8533 24.3247C48.4081 27.3108 52.0552 28.1607 53.6368 25.6702C54.1089 24.9266 54.2506 24.3247 54.1916 23.3332C54.0499 21.1851 52.067 19.6507 50.1785 20.2172ZM51.6893 22.0939C52.9759 22.8847 52.4801 25.4105 51.0284 25.4105C50.8631 25.4105 50.568 25.3043 50.3556 25.1745C49.3051 24.5371 49.3051 22.7431 50.3556 22.1057C50.8277 21.8106 51.2172 21.8106 51.6893 22.0939Z" fill="#94E6FB"/>
</g>
</svg>
