<svg width="83" height="70" viewBox="0 0 83 70" fill="none" xmlns="http://www.w3.org/2000/svg">
<g opacity="0.75">
<path d="M68.3636 53.9091V49.3636C68.3636 46.9526 67.4058 44.6403 65.701 42.9354C63.9961 41.2305 61.6838 40.2727 59.2727 40.2727H41.0909C38.6798 40.2727 36.3675 41.2305 34.6627 42.9354C32.9578 44.6403 32 46.9526 32 49.3636V53.9091" stroke="#94E6FB" stroke-width="2" stroke-linecap="round" stroke-linejoin="round"/>
<path d="M50.1818 31.1818C55.2026 31.1818 59.2727 27.1117 59.2727 22.0909C59.2727 17.0701 55.2026 13 50.1818 13C45.161 13 41.0909 17.0701 41.0909 22.0909C41.0909 27.1117 45.161 31.1818 50.1818 31.1818Z" stroke="#94E6FB" stroke-width="2" stroke-linecap="round" stroke-linejoin="round"/>
<path d="M82 53.9091V49.3637C81.9985 47.3494 81.3281 45.3927 80.094 43.8007C78.8599 42.2088 77.1321 41.0718 75.1818 40.5682" stroke="#94E6FB" stroke-width="2" stroke-linecap="round" stroke-linejoin="round"/>
<path d="M66.0909 13.2955C68.0464 13.7962 69.7797 14.9334 71.0174 16.528C72.2551 18.1226 72.9269 20.0837 72.9269 22.1023C72.9269 24.1209 72.2551 26.082 71.0174 27.6766C69.7797 29.2711 68.0464 30.4084 66.0909 30.9091" stroke="#94E6FB" stroke-width="2" stroke-linecap="round" stroke-linejoin="round"/>
<circle cx="35" cy="35" r="35" fill="#94E6FB" fill-opacity="0.1"/>
</g>
</svg>
