<svg width="297" height="276" viewBox="0 0 297 276" fill="none" xmlns="http://www.w3.org/2000/svg">
<circle cx="123.171" cy="152.171" r="122.671" fill="#94E6FB" fill-opacity="0.1" stroke="#94E6FB"/>
<g opacity="0.75">
<path d="M82.9958 82.5193C82.1258 82.8224 80.834 83.5665 80.0958 84.1452C79.3839 84.7514 74.032 90.2077 68.2055 96.3253C59.1889 105.777 57.5279 107.679 56.8688 109.084L56.1042 110.738L56.0251 162.544C55.9724 219.753 55.8406 215.784 57.6334 218.512C58.8461 220.359 60.7707 221.847 62.8271 222.481C64.5144 223.032 65.2263 223.032 110.019 222.977L155.498 222.894L157.132 222.095C158.951 221.241 161.034 219.146 161.904 217.355C162.932 215.233 163.381 210.686 162.722 209.143C162.115 207.738 160.006 207.628 159.347 208.95C159.189 209.253 159.057 210.301 159.057 211.32C159.057 214.158 158.635 215.481 157.238 216.997C156.42 217.851 155.656 218.402 154.944 218.595C154.153 218.816 140.997 218.871 108.912 218.843L63.9608 218.76L62.6953 217.934C61.7462 217.328 61.1925 216.694 60.6653 215.619L59.9271 214.158V163.206V112.281L69.7609 112.198C78.5403 112.115 79.6739 112.06 80.623 111.619C81.8358 111.041 83.1804 109.773 83.9977 108.395C84.5513 107.458 84.5777 107.128 84.7095 96.8213L84.8413 86.2119L119.352 86.1293C143.739 86.1017 154.179 86.1568 154.944 86.3773C156.447 86.7906 158.345 88.8849 158.741 90.5659C158.951 91.4477 159.057 96.1875 159.057 106.163C159.057 120.162 159.083 120.548 159.584 121.071C160.375 121.898 161.772 121.815 162.458 120.906C163.012 120.19 163.012 119.914 163.012 105.888C163.012 91.0895 162.932 89.7392 161.904 87.6173C161.034 85.8261 158.951 83.7318 157.132 82.8776L155.498 82.0784L120.038 82.0233C84.8413 81.9682 84.5777 81.9682 82.9958 82.5193ZM80.333 106.659C79.5157 108.009 78.7512 108.12 70.4201 108.12H62.6953L71.6592 98.7503L80.623 89.381L80.7021 97.6756C80.7549 104.896 80.7021 106.08 80.333 106.659Z" fill="#94E6FB"/>
<path d="M98.9199 96.9041C98.4454 97.2347 97.7599 97.9512 97.4435 98.4472C96.8635 99.3291 96.8371 99.6597 96.8371 104.041C96.8371 109.415 97.048 110.186 98.7354 111.371C99.6054 111.95 100.159 112.088 101.978 112.198C104.562 112.336 105.326 112.198 106.065 111.371C106.75 110.6 106.724 109.773 106.065 108.864C105.564 108.202 105.326 108.147 103.217 108.065L100.924 107.982L100.845 104.179L100.765 100.404H121.488H142.21L142.131 104.179L142.052 107.982L127.578 108.065C113.13 108.12 113.078 108.12 112.471 108.726C111.469 109.69 111.707 111.179 112.946 111.84C113.578 112.198 115.951 112.253 127.894 112.253C137.781 112.253 142.368 112.171 143.001 111.95C144.082 111.564 145.453 110.269 145.875 109.222C146.059 108.726 146.138 106.852 146.086 103.766C146.007 98.6401 145.901 98.3095 144.187 96.9867C143.476 96.408 143.212 96.408 121.646 96.3254L99.8163 96.2702L98.9199 96.9041Z" fill="#94E6FB"/>
<path d="M158.055 127.878C157.422 128.099 156.157 129.036 155.129 130.028C153.019 132.039 152.334 132.26 149.882 131.819C146.692 131.213 143.581 132.453 141.92 135.015C140.918 136.531 140.655 137.275 140.365 139.397C140.048 141.684 139.6 142.318 137.491 143.475C134.195 145.294 132.613 147.802 132.587 151.136C132.587 152.652 132.745 153.258 133.563 155.077C134.749 157.667 134.775 158.632 133.747 160.698C131.269 165.686 132.719 170.288 137.596 172.823C139.547 173.843 140.022 174.587 140.391 176.957C140.734 179.244 141.393 180.787 142.658 182.11C143.634 183.157 145.875 184.452 146.745 184.452C147.167 184.452 147.193 185.114 147.193 194.29C147.193 203.329 147.246 204.238 147.694 205.285C148.247 206.581 149.012 207.214 150.436 207.628C151.886 208.041 152.756 207.683 156.974 204.955C159.031 203.632 160.823 202.557 161.008 202.557C161.166 202.557 162.88 203.577 164.831 204.844C169.154 207.655 170.024 208.014 171.527 207.573C172.766 207.242 173.663 206.498 174.295 205.258C174.691 204.541 174.744 203.108 174.823 194.483L174.902 184.563L176.035 184.232C177.459 183.846 179.252 182.441 180.201 181.008C180.913 179.906 181.15 179.079 181.73 176.158C182.073 174.339 182.732 173.595 184.947 172.493C186.555 171.694 187.715 170.509 188.638 168.662C189.112 167.725 189.244 167.036 189.244 165.135C189.244 162.986 189.165 162.627 188.348 161.001C187.188 158.687 187.188 157.584 188.348 155.242C189.165 153.616 189.244 153.23 189.244 151.109C189.244 149.042 189.165 148.601 188.479 147.333C187.504 145.487 186.687 144.688 184.604 143.558C182.653 142.511 181.836 141.409 181.598 139.59C181.15 136.145 179.674 133.803 177.169 132.535C175.324 131.598 173.926 131.405 171.87 131.819C169.523 132.287 168.785 132.039 167.019 130.248C164.962 128.154 163.407 127.41 161.034 127.437C160.032 127.437 158.688 127.63 158.055 127.878ZM164.224 133.224C166.413 135.346 167.889 136.063 170.13 136.063C171.079 136.063 172.45 135.98 173.162 135.842C175.561 135.456 177.301 137.082 177.644 140.003C178.013 143.338 179.542 145.515 182.547 147.113C184.525 148.16 185.184 149.014 185.368 150.778C185.474 151.798 185.342 152.321 184.472 154.057C183.549 155.931 183.47 156.317 183.47 158.191C183.497 159.982 183.602 160.45 184.446 162.159C186.133 165.521 185.658 167.367 182.679 169.048C179.463 170.867 178.039 172.906 177.644 176.24C177.406 178.307 176.721 179.409 175.218 180.098C174.111 180.594 173.874 180.622 172.476 180.319C169.392 179.63 166.571 180.512 164.462 182.799C163.117 184.259 162.247 184.728 160.902 184.728C159.505 184.728 158.951 184.425 157.29 182.661C155.392 180.65 153.547 179.906 151.016 180.181C148.01 180.512 146.929 180.429 146.191 179.85C145.005 178.941 144.53 178.004 144.293 176.103C143.845 172.823 142.368 170.646 139.705 169.296C137.834 168.387 137.359 167.918 136.779 166.43C136.252 165.163 136.41 164.253 137.544 162.021C138.255 160.561 138.361 160.12 138.361 158.136C138.361 156.179 138.255 155.683 137.517 154.112C136.41 151.77 136.304 151.329 136.621 150.089C136.964 148.766 137.886 147.857 139.864 146.865C142.368 145.625 143.845 143.393 144.293 140.169C144.53 138.24 145.005 137.33 146.244 136.393C146.85 135.925 147.272 135.842 148.59 135.925C152.492 136.173 153.626 136.09 154.944 135.401C155.682 135.043 156.79 134.161 157.449 133.445C159.031 131.791 159.452 131.571 161.113 131.543C162.458 131.543 162.563 131.598 164.224 133.224ZM153.072 184.508C153.389 184.673 154.311 185.444 155.129 186.244C157.343 188.365 158.213 188.724 161.034 188.724C163.829 188.724 164.883 188.255 166.703 186.244C167.968 184.866 169.154 184.177 170.262 184.177H170.921V193.794C170.921 199.113 170.842 203.494 170.736 203.549C170.604 203.632 168.759 202.53 166.571 201.124C162.431 198.424 161.14 197.928 159.742 198.506C159.321 198.672 157.37 199.857 155.366 201.124C153.389 202.419 151.622 203.467 151.464 203.467C151.227 203.467 151.148 200.904 151.148 193.822V184.177H151.833C152.202 184.177 152.756 184.315 153.072 184.508Z" fill="#94E6FB"/>
<path d="M156.895 141.353C153.758 142.125 150.014 144.688 148.01 147.388C145.585 150.667 144.477 154.057 144.477 158.135C144.477 162.958 145.98 166.678 149.434 170.288C151.754 172.741 154.1 174.173 157.211 174.973C159.558 175.579 163.829 175.386 166.175 174.559C171.211 172.768 175.06 168.579 176.879 162.958C177.538 160.946 177.565 155.49 176.932 153.451C175.007 147.25 170.657 142.814 164.989 141.326C163.064 140.802 158.925 140.83 156.895 141.353ZM166.254 146.203C171.079 148.601 173.847 153.561 173.478 159.1C173.294 161.745 172.503 163.922 170.974 166.072C166.544 172.162 157.976 172.989 152.598 167.863C149.408 164.804 148.01 160.836 148.537 156.289C149.091 151.522 152.65 147.113 157.159 145.569C158.319 145.156 159.294 145.073 161.43 145.129C164.013 145.184 164.33 145.266 166.254 146.203Z" fill="#94E6FB"/>
<path d="M71.2901 132.811C70.5782 133.775 70.6046 134.381 71.3692 135.318L72.0019 136.09L97.2853 136.173C111.179 136.228 122.938 136.173 123.412 136.09C125.152 135.759 125.917 133.83 124.783 132.645C124.256 132.094 123.913 132.094 98.0499 132.094H71.8174L71.2901 132.811Z" fill="#94E6FB"/>
<path d="M71.8701 146.754C70.6046 147.388 70.5255 149.593 71.7646 150.254C72.1074 150.475 80.4385 150.557 98.2344 150.557H124.177L124.731 149.923C125.548 149.014 125.495 147.719 124.625 147.002C123.913 146.424 123.834 146.424 98.1817 146.451C80.7285 146.451 72.2656 146.562 71.8701 146.754Z" fill="#94E6FB"/>
<path d="M71.7119 161.332C70.4991 162.076 70.6573 164.391 71.9755 164.915C72.3446 165.052 83.3649 165.163 98.2608 165.163C123.834 165.163 123.913 165.163 124.625 164.584C125.521 163.84 125.574 162.462 124.704 161.635L124.098 161.029H98.1289C80.4912 161.057 72.0283 161.139 71.7119 161.332Z" fill="#94E6FB"/>
<path d="M71.2901 176.35C70.5782 177.315 70.6046 177.921 71.3692 178.858L72.0019 179.63H98.1553H124.309L124.81 178.968C125.469 178.142 125.442 176.874 124.783 176.185C124.256 175.634 123.913 175.634 98.0499 175.634H71.8174L71.2901 176.35Z" fill="#94E6FB"/>
<path d="M71.7119 197.156C70.4992 197.9 70.631 200.049 71.9492 200.683C72.4238 200.904 76.5102 200.986 85.6059 200.986C98.3662 200.986 98.6299 200.986 99.3154 200.408C100.185 199.691 100.264 198.231 99.4735 197.404C98.9726 196.88 98.6035 196.853 85.5795 196.853C76.7211 196.88 72.0283 196.963 71.7119 197.156Z" fill="#94E6FB"/>
</g>
<circle cx="226.709" cy="36.8436" r="10.5262" fill="#94E6FB" fill-opacity="0.1" stroke="#94E6FB"/>
<circle cx="290.446" cy="5.37863" r="4.87863" fill="#94E6FB" fill-opacity="0.1" stroke="#94E6FB"/>
<circle cx="279.42" cy="42.2222" r="16.4427" fill="#94E6FB" fill-opacity="0.1" stroke="#94E6FB"/>
</svg>
