<svg width="297" height="276" viewBox="0 0 297 276" fill="none" xmlns="http://www.w3.org/2000/svg">
<circle cx="123.17" cy="152.752" r="122.67" fill="#94E6FB" fill-opacity="0.1" stroke="#94E6FB"/>
<circle cx="226.707" cy="36.8433" r="10.5261" fill="#94E6FB" fill-opacity="0.1" stroke="#94E6FB"/>
<circle cx="290.444" cy="5.37858" r="4.87858" fill="#94E6FB" fill-opacity="0.1" stroke="#94E6FB"/>
<circle cx="279.417" cy="42.2219" r="16.4425" fill="#94E6FB" fill-opacity="0.1" stroke="#94E6FB"/>
<g opacity="0.75">
<path d="M63.0722 101.292C60.3926 102.151 58.0252 104.258 56.8025 106.859L56.1 108.342L56.022 145.545C55.97 182.096 55.97 182.773 56.4903 184.438C57.1146 186.519 58.5455 188.418 60.3926 189.693C62.5519 191.176 64.1128 191.462 69.8102 191.462H74.7011V192.685C74.7271 193.387 74.8832 198.85 75.0653 204.86L75.4296 215.76L76.132 216.359C76.4962 216.697 77.1466 216.957 77.5628 216.957C78.3953 216.957 79.1238 216.255 83.9106 210.765C87.2666 206.941 87.4487 206.499 86.174 205.224C84.8472 203.897 84.1708 204.209 81.4651 207.279C80.4245 208.45 79.54 209.387 79.488 209.334C79.4359 209.282 79.2798 204.808 79.1238 199.371C78.9677 193.959 78.7856 189.251 78.7075 188.938C78.6555 188.626 78.3433 188.106 78.0311 187.82C77.4848 187.325 77.1206 187.299 71.3451 187.299C67.6509 187.299 64.7892 187.169 64.1648 187.013C62.76 186.623 60.8088 184.646 60.4186 183.241C60.2105 182.46 60.1585 171.872 60.1845 145.623L60.2625 109.071L61.043 107.822C61.6153 106.885 62.2137 106.339 63.2283 105.819L64.6071 105.09H122.57H180.532L181.911 105.819C182.926 106.339 183.524 106.885 184.096 107.822L184.877 109.071L185.007 143.281C185.137 177.075 185.137 177.466 185.657 177.83C185.943 178.038 186.438 178.272 186.724 178.35C187.504 178.558 188.883 177.804 189.039 177.075C189.117 176.763 189.143 161.154 189.117 142.423L189.039 108.342L188.207 106.625C187.192 104.544 185.319 102.723 183.238 101.76L181.755 101.058L122.96 101.006C74.8572 100.98 63.9567 101.032 63.0722 101.292Z" fill="#94E6FB"/>
<path d="M91.1689 135.893C86.174 137.532 82.844 142.891 83.7545 147.834C84.4309 151.45 86.6422 154.312 89.9982 155.899C91.5852 156.653 91.9494 156.731 94.3428 156.731C96.7362 156.731 97.1005 156.653 98.6874 155.899C102.043 154.312 104.255 151.45 104.931 147.834C105.738 143.411 103.214 138.598 98.9736 136.517C97.4387 135.763 96.9704 135.659 94.7591 135.607C93.1721 135.555 91.8713 135.659 91.1689 135.893ZM97.2305 140.315C98.8695 141.07 100.092 142.527 100.613 144.348C101.913 148.718 98.3752 153.037 93.8745 152.647C87.2666 152.074 85.4976 143.307 91.4031 140.367C93.1981 139.457 95.3574 139.457 97.2305 140.315Z" fill="#94E6FB"/>
<path d="M119.005 136.023C116.196 137.063 114.167 138.937 112.84 141.772C112.085 143.333 112.033 143.671 112.033 146.195C112.033 149.135 112.372 150.305 113.932 152.543C115.754 155.222 119.76 157.043 123.168 156.783C125.691 156.601 126.706 156.263 128.605 154.962C131.753 152.803 133.392 149.447 133.184 145.518C132.976 141.564 130.686 138.156 127.044 136.413C125.041 135.424 121.087 135.242 119.005 136.023ZM125.301 140.185C126.628 140.784 128.371 142.735 128.761 144.062C130.062 148.432 127.018 152.699 122.57 152.699C118.173 152.699 115.103 148.484 116.326 144.088C116.69 142.839 118.511 140.784 119.838 140.185C121.243 139.535 123.896 139.535 125.301 140.185Z" fill="#94E6FB"/>
<path d="M147.623 135.893C142.602 137.532 139.298 142.865 140.208 147.834C140.885 151.45 143.096 154.312 146.452 155.899C148.039 156.653 148.403 156.731 150.796 156.731C153.19 156.731 153.554 156.653 155.141 155.899C158.523 154.312 160.734 151.424 161.359 147.782C161.957 144.452 160.708 140.914 158.107 138.442C155.947 136.413 154.23 135.685 151.187 135.607C149.6 135.555 148.325 135.659 147.623 135.893ZM153.736 140.367C159.642 143.307 157.873 152.074 151.291 152.647C147.857 152.933 144.735 150.383 144.267 146.923C143.746 143.151 146.868 139.691 150.796 139.691C151.993 139.691 152.722 139.873 153.736 140.367Z" fill="#94E6FB"/>
<path d="M98.8175 170.702C98.4272 171.04 97.4647 172.939 96.4241 175.332C95.4615 177.544 94.603 179.443 94.5249 179.547C94.4209 179.651 92.2876 179.911 89.7901 180.145C84.509 180.639 83.9886 180.848 83.8586 182.565L83.7805 183.605L87.3707 186.779C89.3478 188.522 90.9868 190.057 91.0388 190.161C91.0649 190.265 90.7006 192.19 90.1803 194.454C89.1137 199.214 89.0617 200.099 89.7901 200.827C90.7527 201.79 91.6892 201.504 95.9298 199.006C98.1151 197.706 99.9622 196.665 100.04 196.665C100.118 196.665 101.965 197.732 104.151 199.006C108.469 201.556 109.302 201.79 110.29 200.749C111.045 199.943 111.019 199.527 109.952 194.766C109.458 192.529 109.042 190.551 109.042 190.369C109.042 190.161 110.629 188.626 112.554 186.909C114.505 185.192 116.144 183.553 116.222 183.215C116.456 182.33 116.144 181.368 115.467 180.952C115.103 180.717 113.204 180.405 110.212 180.145C107.637 179.885 105.503 179.677 105.503 179.651C105.477 179.651 104.671 177.778 103.708 175.514C102.746 173.251 101.757 171.17 101.523 170.884C100.847 170.077 99.624 169.973 98.8175 170.702ZM101.237 180.301C101.913 181.862 102.59 183.059 102.954 183.293C103.266 183.527 104.723 183.813 106.232 183.969C107.715 184.099 108.964 184.256 108.99 184.308C109.042 184.36 108.573 184.854 107.949 185.4C104.229 188.678 104.255 188.6 105.139 192.372C105.425 193.595 105.66 194.714 105.66 194.844C105.66 195 104.879 194.61 103.917 194.011C101.497 192.529 100.092 191.93 99.4939 192.164C99.2337 192.268 98.063 192.919 96.8663 193.621C95.6696 194.324 94.629 194.844 94.5509 194.766C94.4989 194.688 94.681 193.465 95.0192 192.034C95.3314 190.603 95.5135 189.146 95.4355 188.808C95.3314 188.418 94.3168 187.325 93.042 186.233C91.7933 185.192 90.8828 184.282 91.0128 184.256C91.1169 184.23 92.4437 184.073 93.9526 183.917C95.4355 183.787 96.8923 183.501 97.2045 183.293C97.4907 183.111 98.011 182.252 98.3492 181.42C99.3118 179.078 99.9622 177.674 100.04 177.674C100.066 177.674 100.613 178.844 101.237 180.301Z" fill="#94E6FB"/>
<path d="M135.239 170.702C134.797 171.066 133.912 172.809 132.846 175.332C131.883 177.544 131.051 179.443 130.947 179.547C130.843 179.651 128.709 179.911 126.212 180.145C120.931 180.639 120.41 180.848 120.28 182.565C120.202 183.605 120.228 183.631 123.272 186.337C124.963 187.846 126.628 189.277 126.966 189.563L127.591 190.057L126.55 194.74C125.457 199.657 125.431 200.541 126.472 201.088C127.513 201.634 128.449 201.322 132.351 199.006C134.537 197.706 136.384 196.665 136.436 196.665C136.514 196.665 138.361 197.732 140.546 199.006C143.252 200.593 144.787 201.348 145.333 201.348C146.296 201.348 147.284 200.437 147.284 199.553C147.284 199.241 146.868 197.159 146.374 194.922C145.879 192.685 145.463 190.655 145.463 190.421C145.463 190.187 147.05 188.6 148.975 186.909C152.487 183.813 152.956 183.215 152.644 181.966C152.357 180.848 151.577 180.613 146.634 180.145C144.058 179.885 141.925 179.677 141.925 179.651C141.899 179.651 141.041 177.7 140.026 175.332C138.985 172.965 138.023 170.884 137.841 170.728C137.659 170.545 137.164 170.337 136.722 170.233C136.098 170.129 135.759 170.233 135.239 170.702ZM137.659 180.301C138.335 181.862 139.011 183.059 139.376 183.293C139.688 183.527 141.145 183.813 142.654 183.969C144.136 184.1 145.359 184.256 145.411 184.308C145.437 184.334 144.475 185.27 143.252 186.389C140.702 188.704 140.676 188.782 141.561 192.45C141.847 193.647 142.081 194.714 142.081 194.87C142.081 195 141.301 194.61 140.338 194.011C137.919 192.555 136.514 191.956 135.916 192.164C135.655 192.268 134.485 192.919 133.288 193.621C132.091 194.324 131.051 194.818 130.973 194.766C130.895 194.688 131.103 193.439 131.415 191.982C131.727 190.551 131.909 189.094 131.831 188.782C131.753 188.444 130.686 187.325 129.464 186.259C128.241 185.192 127.33 184.282 127.435 184.256C127.539 184.23 128.839 184.1 130.27 183.943C131.727 183.787 133.106 183.579 133.366 183.501C133.756 183.345 135.525 179.937 136.176 178.116C136.28 177.882 136.384 177.674 136.436 177.674C136.488 177.674 137.034 178.844 137.659 180.301Z" fill="#94E6FB"/>
<path d="M171.661 170.701C171.245 171.066 170.282 172.913 169.189 175.462L167.394 179.625L166.12 179.807C165.417 179.885 163.284 180.119 161.385 180.275C157.3 180.665 156.65 180.978 156.65 182.617C156.65 183.605 156.78 183.761 160.24 186.831C162.191 188.574 163.83 190.083 163.882 190.161C163.908 190.239 163.466 192.398 162.894 194.948C161.957 199.188 161.905 199.631 162.243 200.307C163.076 201.946 164.09 201.738 168.747 199.006C170.932 197.706 172.78 196.665 172.858 196.665C172.91 196.665 174.757 197.706 176.968 199.006C181.391 201.608 182.249 201.842 183.16 200.671C183.472 200.281 183.706 199.735 183.706 199.423C183.706 199.136 183.238 196.925 182.691 194.506L181.703 190.161L184.721 187.508C186.386 186.025 188.051 184.516 188.467 184.125C189.351 183.241 189.403 182.044 188.571 181.212C187.947 180.587 188.129 180.639 179.908 179.833L178.295 179.677L176.422 175.306C175.407 172.913 174.418 170.806 174.236 170.675C173.482 170.051 172.363 170.051 171.661 170.701ZM174.054 180.327C174.653 181.706 175.355 183.007 175.615 183.241C175.927 183.527 176.994 183.761 178.919 183.943C180.48 184.099 181.781 184.256 181.833 184.308C181.859 184.334 180.896 185.27 179.674 186.389C177.124 188.704 177.124 188.73 177.983 192.502C178.269 193.725 178.503 194.792 178.503 194.896C178.503 195 177.722 194.61 176.76 194.011C172.962 191.696 172.832 191.67 169.892 193.491C168.981 194.037 167.967 194.636 167.654 194.792L167.108 195.104L167.472 193.465C168.279 190.109 168.409 189.329 168.253 188.782C168.175 188.444 167.108 187.325 165.859 186.259C164.637 185.192 163.726 184.308 163.83 184.256C163.96 184.23 165.261 184.073 166.744 183.943C168.227 183.787 169.632 183.553 169.892 183.397C170.308 183.189 170.828 182.226 172.259 178.87C172.545 178.168 172.832 177.648 172.884 177.7C172.936 177.752 173.456 178.922 174.054 180.327Z" fill="#94E6FB"/>
</g>
</svg>
