<svg width="86" height="70" viewBox="0 0 86 70" fill="none" xmlns="http://www.w3.org/2000/svg">
<g opacity="0.75">
<circle cx="35" cy="35" r="35" fill="#94E6FB" fill-opacity="0.1"/>
<path d="M31.0495 18.126C29.8941 18.4962 28.8733 19.4048 28.346 20.5266L28.0431 21.166L28.0095 37.2073C27.987 52.9682 27.987 53.2599 28.2114 53.9778C28.4806 54.8753 29.0976 55.6942 29.8941 56.2438C30.8251 56.8832 31.4982 57.0066 33.9549 57.0066H36.0638V57.5339C36.075 57.8367 36.1423 60.1925 36.2209 62.7838L36.3779 67.484L36.6808 67.742C36.8378 67.8878 37.1183 68 37.2978 68C37.6567 68 37.9708 67.6971 40.0349 65.3302C41.482 63.6812 41.5605 63.4905 41.0108 62.9408C40.4387 62.3687 40.1471 62.5033 38.9804 63.827C38.5317 64.3318 38.1503 64.7356 38.1279 64.7132C38.1054 64.6908 38.0381 62.7613 37.9708 60.4168C37.9035 58.0835 37.825 56.0531 37.7913 55.9185C37.7689 55.7839 37.6343 55.5595 37.4997 55.4361C37.2641 55.223 37.1071 55.2118 34.6167 55.2118C33.0238 55.2118 31.7899 55.1557 31.5206 55.0884C30.9149 54.9201 30.0735 54.0676 29.9053 53.4618C29.8155 53.1253 29.7931 48.5597 29.8043 37.241L29.838 21.4801L30.1745 20.9416C30.4213 20.5378 30.6793 20.3022 31.1168 20.0779L31.7113 19.7638H56.7044H81.6975L82.2921 20.0779C82.7296 20.3022 82.9876 20.5378 83.2344 20.9416L83.5709 21.4801L83.627 36.2314C83.6831 50.8032 83.6831 50.9715 83.9074 51.1285C84.0308 51.2183 84.244 51.3192 84.3674 51.3529C84.7039 51.4426 85.2984 51.1173 85.3657 50.8032C85.3994 50.6686 85.4106 43.938 85.3994 35.8612L85.3657 21.166L85.0068 20.4256C84.5693 19.5282 83.7616 18.743 82.8642 18.3279L82.2248 18.025L56.8727 18.0026C36.1311 17.9914 31.4309 18.0138 31.0495 18.126Z" fill="#94E6FB"/>
<path d="M43.1646 33.0456C41.0108 33.7523 39.5749 36.0631 39.9676 38.1945C40.2592 39.7538 41.2127 40.9877 42.6598 41.672C43.3441 41.9973 43.5012 42.031 44.5332 42.031C45.5652 42.031 45.7223 41.9973 46.4065 41.672C47.8536 40.9877 48.8071 39.7538 49.0988 38.1945C49.4465 36.2875 48.3584 34.2122 46.5299 33.3148C45.8681 32.9895 45.6662 32.9446 44.7127 32.9222C44.0284 32.8997 43.4675 32.9446 43.1646 33.0456ZM45.7784 34.9526C46.4851 35.2779 47.0123 35.9061 47.2367 36.6913C47.7975 38.5759 46.2719 40.4381 44.3313 40.2698C41.482 40.023 40.7192 36.2426 43.2656 34.975C44.0396 34.5824 44.9707 34.5824 45.7784 34.9526Z" fill="#94E6FB"/>
<path d="M55.1676 33.1016C53.9561 33.5503 53.0811 34.358 52.509 35.5807C52.1837 36.2538 52.1613 36.3996 52.1613 37.4878C52.1613 38.7554 52.3071 39.2602 52.9801 40.2249C53.7654 41.3803 55.4929 42.1656 56.9624 42.0534C58.0506 41.9749 58.4881 41.829 59.3069 41.2681C60.6643 40.3371 61.371 38.89 61.2813 37.1961C61.1915 35.491 60.2044 34.0215 58.6339 33.2699C57.7701 32.8436 56.065 32.7651 55.1676 33.1016ZM57.8823 34.8965C58.4544 35.1545 59.206 35.9958 59.3743 36.5679C59.9351 38.4525 58.6227 40.2922 56.7044 40.2922C54.8086 40.2922 53.4849 38.4749 54.0122 36.5791C54.1692 36.0407 54.9545 35.1545 55.5266 34.8965C56.1323 34.616 57.2765 34.616 57.8823 34.8965Z" fill="#94E6FB"/>
<path d="M67.5071 33.0456C65.3421 33.7523 63.9174 36.0519 64.31 38.1945C64.6017 39.7538 65.5552 40.9877 67.0023 41.672C67.6866 41.9973 67.8436 42.031 68.8757 42.031C69.9077 42.031 70.0647 41.9973 70.749 41.672C72.2073 40.9877 73.1608 39.7426 73.4301 38.1721C73.6881 36.7362 73.1496 35.2106 72.0278 34.1449C71.0968 33.2699 70.3564 32.9558 69.0439 32.9222C68.3596 32.8997 67.81 32.9446 67.5071 33.0456ZM70.1433 34.975C72.6897 36.2426 71.9269 40.023 69.0888 40.2698C67.6081 40.3932 66.2619 39.2938 66.06 37.8019C65.8357 36.1753 67.1818 34.6834 68.8757 34.6834C69.3917 34.6834 69.7058 34.7619 70.1433 34.975Z" fill="#94E6FB"/>
<path d="M46.4627 48.0549C46.2944 48.2007 45.8793 49.0196 45.4306 50.0516C45.0156 51.0051 44.6454 51.824 44.6117 51.8689C44.5669 51.9138 43.647 52.026 42.5701 52.1269C40.2929 52.3401 40.0686 52.4298 40.0125 53.1702L39.9788 53.6189L41.5269 54.9874C42.3794 55.739 43.0861 56.4009 43.1086 56.4457C43.1198 56.4906 42.9627 57.3207 42.7384 58.2967C42.2785 60.3495 42.256 60.7309 42.5701 61.045C42.9852 61.4601 43.389 61.3367 45.2175 60.2598C46.1598 59.6989 46.9562 59.2502 46.9899 59.2502C47.0236 59.2502 47.82 59.7101 48.7623 60.2598C50.6244 61.3591 50.9834 61.4601 51.4097 61.0114C51.735 60.6636 51.7238 60.4841 51.2639 58.4313C51.0507 57.4666 50.8712 56.614 50.8712 56.5355C50.8712 56.4457 51.5555 55.7839 52.3856 55.0435C53.227 54.3032 53.9337 53.5964 53.9673 53.4506C54.0683 53.0692 53.9337 52.6542 53.642 52.4747C53.485 52.3737 52.6661 52.2391 51.376 52.1269C50.2655 52.0147 49.3456 51.925 49.3456 51.9138C49.3344 51.9138 48.9867 51.1061 48.5716 50.1302C48.1565 49.1542 47.7303 48.2568 47.6293 48.1334C47.3376 47.7857 46.8104 47.7408 46.4627 48.0549ZM47.5059 52.1942C47.7976 52.8673 48.0892 53.3833 48.2463 53.4843C48.3809 53.5852 49.0091 53.7086 49.6597 53.7759C50.2991 53.832 50.8376 53.8993 50.8488 53.9218C50.8712 53.9442 50.6693 54.1573 50.4001 54.3929C48.796 55.8063 48.8072 55.7727 49.1886 57.3993C49.312 57.9265 49.4129 58.4089 49.4129 58.4649C49.4129 58.5322 49.0764 58.364 48.6613 58.106C47.6181 57.4666 47.0123 57.2086 46.7543 57.3095C46.6422 57.3544 46.1374 57.6348 45.6213 57.9377C45.1053 58.2406 44.6566 58.4649 44.623 58.4313C44.6005 58.3976 44.679 57.8704 44.8249 57.2534C44.9595 56.6365 45.038 56.0083 45.0044 55.8624C44.9595 55.6942 44.522 55.223 43.9723 54.7519C43.4339 54.3032 43.0413 53.9105 43.0973 53.8993C43.1422 53.8881 43.7143 53.8208 44.365 53.7535C45.0044 53.6974 45.6326 53.574 45.7672 53.4843C45.8906 53.4057 46.1149 53.0356 46.2607 52.6766C46.6758 51.667 46.9562 51.0612 46.9899 51.0612C47.0011 51.0612 47.2367 51.566 47.5059 52.1942Z" fill="#94E6FB"/>
<path d="M62.1675 48.0549C61.9768 48.2119 61.5953 48.9635 61.1354 50.0517C60.7204 51.0052 60.3614 51.8241 60.3165 51.8689C60.2717 51.9138 59.3518 52.026 58.2749 52.1269C55.9977 52.3401 55.7733 52.4298 55.7173 53.1702C55.6836 53.6189 55.6948 53.6301 57.0073 54.7968C57.7365 55.4474 58.4544 56.0644 58.6002 56.1877L58.8694 56.4009L58.4207 58.4201C57.9496 60.5402 57.9384 60.9216 58.3871 61.1572C58.8358 61.3928 59.2396 61.2582 60.9223 60.2598C61.8646 59.6989 62.661 59.2502 62.6835 59.2502C62.7171 59.2502 63.5136 59.7101 64.4559 60.2598C65.6225 60.9441 66.2844 61.2694 66.5199 61.2694C66.935 61.2694 67.3613 60.8768 67.3613 60.4954C67.3613 60.3607 67.1818 59.4633 66.9686 58.4986C66.7555 57.5339 66.576 56.6589 66.576 56.5579C66.576 56.457 67.2603 55.7727 68.0904 55.0435C69.6048 53.7086 69.8067 53.4506 69.6721 52.9122C69.5487 52.4298 69.2122 52.3289 67.0808 52.1269C65.9703 52.0148 65.0504 51.925 65.0504 51.9138C65.0392 51.9138 64.669 51.0725 64.2315 50.0517C63.7828 49.0308 63.3678 48.1334 63.2892 48.0661C63.2107 47.9876 62.9976 47.8978 62.8069 47.853C62.5376 47.8081 62.3918 47.853 62.1675 48.0549ZM63.2107 52.1942C63.5024 52.8673 63.794 53.3833 63.9511 53.4843C64.0857 53.5852 64.7139 53.7086 65.3645 53.7759C66.0039 53.832 66.5311 53.8993 66.5536 53.9218C66.5648 53.933 66.1497 54.3368 65.6225 54.8192C64.5232 55.8176 64.512 55.8512 64.8934 57.4329C65.0168 57.9489 65.1177 58.4089 65.1177 58.4762C65.1177 58.5323 64.7812 58.364 64.3661 58.106C63.3229 57.4778 62.7171 57.2198 62.4591 57.3095C62.3469 57.3544 61.8421 57.6348 61.3261 57.9377C60.8101 58.2406 60.3614 58.4537 60.3277 58.4313C60.2941 58.3976 60.3838 57.8592 60.5184 57.231C60.6531 56.614 60.7316 55.9858 60.6979 55.8512C60.6643 55.7054 60.2044 55.223 59.6771 54.7631C59.1499 54.3032 58.7573 53.9106 58.8021 53.8993C58.847 53.8881 59.4079 53.832 60.0249 53.7647C60.6531 53.6974 61.2476 53.6077 61.3598 53.574C61.528 53.5067 62.2908 52.0372 62.5713 51.2519C62.6162 51.151 62.661 51.0612 62.6835 51.0612C62.7059 51.0612 62.9415 51.566 63.2107 52.1942Z" fill="#94E6FB"/>
<path d="M77.8723 48.0549C77.6928 48.2119 77.2777 49.0084 76.8066 50.1077L76.0326 51.9026L75.4829 51.9811C75.18 52.0147 74.2602 52.1157 73.4413 52.183C71.6801 52.3513 71.3997 52.4859 71.3997 53.1926C71.3997 53.6189 71.4557 53.6862 72.9477 55.0099C73.789 55.7615 74.4958 56.4121 74.5182 56.4457C74.5294 56.4794 74.3387 57.4105 74.0919 58.5098C73.6881 60.3383 73.6656 60.529 73.8115 60.8207C74.1704 61.5274 74.6079 61.4376 76.6159 60.2598C77.5582 59.6989 78.3547 59.2502 78.3883 59.2502C78.4107 59.2502 79.2072 59.6989 80.1607 60.2598C82.0677 61.3815 82.4379 61.4825 82.8305 60.9777C82.9651 60.8094 83.0661 60.5739 83.0661 60.4393C83.0661 60.3159 82.8642 59.3624 82.6286 58.3191L82.2023 56.4457L83.5036 55.3015C84.2215 54.6621 84.9395 54.0115 85.1189 53.8432C85.5003 53.4618 85.5228 52.9458 85.1638 52.5868C84.8946 52.3176 84.9731 52.3401 81.4283 51.9923L80.7328 51.925L79.9251 50.0404C79.4876 49.0084 79.0614 48.0998 78.9828 48.0437C78.6575 47.7744 78.1752 47.7744 77.8723 48.0549ZM78.9043 52.2054C79.1623 52.8 79.4652 53.3609 79.5774 53.4618C79.712 53.5852 80.1719 53.6862 81.002 53.7647C81.6751 53.832 82.236 53.8993 82.2584 53.9218C82.2696 53.933 81.8546 54.3368 81.3273 54.8192C80.228 55.8176 80.228 55.8288 80.5982 57.4553C80.7216 57.9826 80.8226 58.4425 80.8226 58.4874C80.8226 58.5322 80.486 58.364 80.071 58.106C78.4332 57.1076 78.3771 57.0964 77.1095 57.8816C76.7169 58.1172 76.2794 58.3752 76.1448 58.4425L75.9092 58.5771L76.0662 57.8704C76.414 56.4233 76.4701 56.0868 76.4028 55.8512C76.3691 55.7054 75.9092 55.223 75.3707 54.7631C74.8435 54.3032 74.4509 53.9218 74.4958 53.8993C74.5518 53.8881 75.1127 53.8208 75.7521 53.7647C76.3915 53.6974 76.9973 53.5964 77.1095 53.5291C77.289 53.4394 77.5133 53.0243 78.1303 51.5772C78.2537 51.2744 78.3771 51.05 78.3995 51.0725C78.422 51.0949 78.6463 51.5997 78.9043 52.2054Z" fill="#94E6FB"/>
</g>
</svg>
