<svg width="86" height="70" viewBox="0 0 86 70" fill="none" xmlns="http://www.w3.org/2000/svg">
<g opacity="0.75">
<circle cx="35" cy="35" r="35" fill="#94E6FB" fill-opacity="0.1"/>
<path d="M72.1437 10.2094C71.1827 10.6893 70.9952 10.9558 69.7999 14.1279C68.5812 17.2466 68.5577 18.2062 69.6124 18.0463C70.1515 17.9663 70.3624 17.6465 71.253 15.3274C71.7921 13.888 72.378 12.5285 72.5187 12.3419C72.8937 11.8355 73.2452 11.8621 75.4484 12.6351C76.878 13.1416 77.4171 13.4615 77.5343 13.8613C77.7921 14.7676 77.2296 15.2474 76.128 15.0342C75.6124 14.9275 74.8155 14.8209 74.3702 14.7943L73.5734 14.7676L70.9718 21.6715L68.3937 28.5754L61.8312 31.4809L55.2687 34.413L51.2843 35.0528C46.4796 35.8258 46.4796 35.8258 46.4796 36.6255C46.4796 37.3985 46.5499 37.4518 49.128 38.6513L51.214 39.5843L54.4718 43.6627C56.2765 45.9284 57.8468 47.9809 57.9874 48.2475C58.3155 48.9405 57.4484 49.9535 56.8155 49.5803C56.5812 49.4203 54.964 47.5278 53.2296 45.3686L50.0421 41.4236L45.1671 39.1845C42.4718 37.9583 40.0343 36.7854 39.7296 36.5722C39.1437 36.1723 39.0499 35.3727 39.5421 34.9195C39.7296 34.7329 43.128 34.1198 47.1124 33.5067L54.3312 32.4138L60.5421 29.6949C64.5265 27.9356 66.8468 26.7894 67.0343 26.4429C67.2218 26.1497 67.714 24.9235 68.1593 23.6974C68.9796 21.3516 68.9562 20.4986 68.0655 20.4986C67.4796 20.4986 67.2921 20.8185 66.4015 23.2175L65.6515 25.2701L62.5812 26.6562C60.8702 27.4025 58.8312 28.3088 58.0109 28.6554L56.5577 29.2951L56.6984 28.2555C57.0734 25.5633 54.8702 22.6578 52.4093 22.6311C51.7062 22.6311 50.9327 23.1909 50.9327 23.6974C50.9327 24.2305 51.7296 24.7636 52.503 24.7636C53.1359 24.7636 53.5109 24.9768 54.1202 25.6699C55.1515 26.8428 55.2218 28.3088 54.3312 29.535C53.6984 30.388 52.714 30.7079 49.8546 31.0544L48.4249 31.2143L48.0968 28.3355C47.7921 25.6166 47.7921 25.4033 48.1905 24.9502C48.5187 24.577 48.5421 24.3638 48.3312 23.9106C48.0968 23.4041 47.9327 23.3775 46.3859 23.5374C45.4718 23.644 43.0109 23.9906 40.9249 24.3371C37.7843 24.8436 36.9405 25.0835 36.1905 25.6432C34.5499 26.8961 33.8702 29.4817 34.6437 31.6142C35.1124 32.8937 35.6046 33.5067 36.6593 34.1198C37.339 34.493 37.503 34.7329 37.4093 35.2127C37.3624 35.5592 37.6437 38.3315 38.0187 41.3969L38.6984 46.968L36.8468 51.2063C34.6437 56.2709 34.5265 57.0706 35.7921 58.51C36.4015 59.2031 36.7765 59.4163 37.4327 59.4163C38.7921 59.4163 39.5187 58.8032 40.339 57.0706C41.2062 55.2047 41.253 54.7515 40.5968 54.3517C39.9874 53.9519 39.589 54.325 38.8624 55.9777C38.2765 57.2572 37.8312 57.657 37.2218 57.3905C36.4718 57.0439 36.6827 56.2176 38.5109 51.8993C39.5421 49.447 40.3859 47.1279 40.3859 46.7014C40.3624 46.3016 40.1749 44.3824 39.9405 42.4898C39.6827 40.5706 39.5421 38.9712 39.589 38.9179C39.6827 38.8113 41.1124 39.3977 41.3702 39.6643C41.464 39.7442 41.7452 41.5568 42.003 43.6893L42.4718 47.5544L41.7452 49.3404C41.0187 51.1263 40.9952 51.8194 41.6749 52.1126C42.214 52.3525 42.7062 51.7661 43.4562 49.8735C44.2296 47.9276 44.2765 47.2346 43.7843 43.6893C43.5968 42.3032 43.4327 41.0237 43.4327 40.8371C43.4327 40.6505 44.6046 41.077 46.2921 41.8767L49.1749 43.2095L52.1046 46.9413C55.1984 50.8864 56.0421 51.6861 57.0968 51.6861C59.089 51.6861 60.4718 49.1538 59.5343 47.2346C58.9952 46.1417 52.503 38.2782 51.6593 37.7184L50.8155 37.1586L52.6905 36.892C54.5655 36.6255 54.5655 36.6255 61.5265 38.5447C66.8468 40.0108 68.6515 40.4106 69.1905 40.224C69.5421 40.1174 71.8624 38.4381 74.3234 36.5189C76.7609 34.5996 78.8702 33.0269 78.9874 33.0269C79.1046 33.0269 79.6437 33.4001 80.1827 33.8533C81.9171 35.2927 83.7921 35.1594 84.7062 33.5067C85.0577 32.867 85.1515 32.3339 85.0577 31.5609C84.9405 30.3347 83.9562 29.1618 81.378 27.2159C79.0343 25.4033 78.7765 25.4833 73.1984 29.8549C70.6905 31.8541 68.4874 33.5601 68.3234 33.6667C67.9952 33.8799 64.0577 33.0536 64.0577 32.7604C64.0577 32.6804 65.2062 32.1206 66.6124 31.4809C67.9952 30.8678 69.3546 30.0681 69.6359 29.7483C69.8937 29.4284 71.1359 26.3896 72.378 23.031C73.6202 19.6456 74.6749 16.8734 74.6984 16.8468C74.7218 16.8201 75.1671 16.9001 75.6593 17.06C77.6046 17.6731 79.2921 16.287 79.2921 14.0479C79.2921 12.4485 78.4484 11.5689 76.1749 10.8225C73.503 9.91623 72.9405 9.83626 72.1437 10.2094ZM46.0109 25.7499C46.0109 25.8831 46.1749 27.1626 46.3624 28.6287C46.5265 30.0948 46.6202 31.3743 46.5265 31.4809C46.4327 31.5875 45.6827 31.6941 44.839 31.7474L43.339 31.8274L43.0109 29.0819C42.8468 27.5625 42.753 26.2563 42.8234 26.1764C42.8702 26.0964 43.503 25.9365 44.1827 25.8298C45.9405 25.5366 46.0109 25.5366 46.0109 25.7499ZM41.2765 29.1352C41.4405 30.6012 41.5343 31.934 41.464 32.094C41.4171 32.2806 40.6671 32.4938 39.8234 32.6004C37.4327 32.867 36.1671 31.8807 36.1671 29.6683C36.1671 27.829 37.0812 26.9494 39.4484 26.5229C40.9249 26.2563 40.9249 26.283 41.2765 29.1352ZM81.214 29.5617C83.2296 31.161 83.6046 31.6408 83.3702 32.3605C83.0655 33.2402 82.339 33.0802 80.6984 31.8008C79.8077 31.1344 78.9405 30.6279 78.7765 30.6812C78.6124 30.7612 76.3624 32.4938 73.7843 34.493C71.2062 36.5189 68.9327 38.2248 68.7452 38.2782C68.4405 38.3581 59.2062 35.9591 58.1984 35.5326C57.9874 35.4526 58.4562 35.1328 59.3702 34.7329L60.8937 34.0665L64.4093 35.0261C66.3312 35.5326 68.0655 35.9591 68.2296 35.9591C68.3937 35.9591 70.714 34.2531 73.3624 32.1473C77.7921 28.682 78.6827 28.0423 79.0812 27.989C79.1515 27.9623 80.1124 28.682 81.214 29.5617Z" fill="#94E6FB"/>
<path d="M31.3859 32.5471C28.6905 33.2135 27.2374 36.6521 28.4093 39.5843C28.6437 40.1707 29.1124 40.9171 29.4405 41.2103C29.8624 41.5835 30.1202 42.1166 30.214 42.8896C30.4249 44.4357 30.9874 45.0221 32.253 45.0221C33.6359 45.0221 34.9484 44.5423 35.2296 43.9559C35.3468 43.6893 35.464 42.9696 35.464 42.3565C35.464 41.6368 35.6749 40.9171 36.1202 40.1707C37.0343 38.598 37.0343 36.2523 36.0968 34.6796C35.089 32.947 33.1905 32.0673 31.3859 32.5471ZM33.589 34.7596C34.5265 35.3193 34.9952 36.1723 34.9952 37.3719C34.9952 40.0374 32.1359 41.4769 30.5655 39.5843C28.4796 37.0786 30.9171 33.1869 33.589 34.7596ZM33.8234 42.6231C33.8234 42.7564 33.6359 42.8896 33.4249 42.8896C33.1905 42.8896 32.7687 42.9696 32.4874 43.0496C32.1124 43.1562 31.9484 43.1029 31.9484 42.8363C31.9484 42.5964 32.253 42.4365 32.8859 42.4098C33.4249 42.3565 33.8234 42.4631 33.8234 42.6231Z" fill="#94E6FB"/>
</g>
</svg>
