<?xml version="1.0" encoding="utf-8"?>
<!-- Generator: Adobe Illustrator 16.0.0, SVG Export Plug-In . SVG Version: 6.00 Build 0)  -->
<!DOCTYPE svg PUBLIC "-//W3C//DTD SVG 1.1//EN" "http://www.w3.org/Graphics/SVG/1.1/DTD/svg11.dtd">
<svg version="1.1" id="圖層_1" xmlns="http://www.w3.org/2000/svg" xmlns:xlink="http://www.w3.org/1999/xlink" x="0px" y="0px"
	 width="100px" height="100px" viewBox="0 0 100 100" enable-background="new 0 0 100 100" xml:space="preserve">
<g>
	<g>
		<path fill="#E5FAFF" d="M61.877,72.5c-0.618,0-1.119-0.501-1.119-1.12v-4.75c0-4.623-3.76-8.384-8.382-8.384H33.37
			c-4.622,0-8.382,3.761-8.382,8.384v4.75c0,0.619-0.502,1.12-1.12,1.12s-1.12-0.501-1.12-1.12v-4.75
			c0-5.858,4.765-10.623,10.622-10.623h19.006c5.856,0,10.622,4.765,10.622,10.623v4.75C62.998,71.999,62.495,72.5,61.877,72.5z"/>
	</g>
	<g>
		<path fill="#E5FAFF" d="M42.874,48.744c-5.858,0-10.624-4.765-10.624-10.622c0-5.857,4.766-10.622,10.624-10.622
			c5.856,0,10.621,4.765,10.621,10.622C53.495,43.979,48.73,48.744,42.874,48.744z M42.874,29.74c-4.622,0-8.384,3.76-8.384,8.382
			c0,4.622,3.762,8.382,8.384,8.382c4.621,0,8.381-3.761,8.381-8.382C51.255,33.5,47.495,29.74,42.874,29.74z"/>
	</g>
	<g>
		<path fill="#E5FAFF" d="M76.132,72.5c-0.618,0-1.12-0.501-1.12-1.12v-4.75c-0.004-3.82-2.589-7.155-6.287-8.11
			c-0.598-0.154-0.958-0.765-0.804-1.364c0.154-0.599,0.764-0.956,1.364-0.804c4.685,1.209,7.961,5.436,7.967,10.277v4.751
			C77.252,71.999,76.75,72.5,76.132,72.5z"/>
	</g>
	<g>
		<path fill="#E5FAFF" d="M59.501,48.459c-0.5,0-0.955-0.337-1.085-0.843c-0.151-0.599,0.209-1.209,0.809-1.362
			c2.967-0.759,5.282-3.074,6.042-6.041c1.146-4.478-1.564-9.053-6.042-10.2c-0.6-0.153-0.96-0.763-0.809-1.362
			c0.155-0.599,0.763-0.962,1.363-0.807c5.675,1.452,9.11,7.25,7.656,12.924c-0.963,3.761-3.896,6.694-7.656,7.655
			C59.687,48.448,59.593,48.459,59.501,48.459z"/>
	</g>
</g>
</svg>
