<?xml version="1.0" encoding="utf-8"?>
<!-- Generator: Adobe Illustrator 16.0.0, SVG Export Plug-In . SVG Version: 6.00 Build 0)  -->
<!DOCTYPE svg PUBLIC "-//W3C//DTD SVG 1.1//EN" "http://www.w3.org/Graphics/SVG/1.1/DTD/svg11.dtd">
<svg version="1.1" id="圖層_1" xmlns="http://www.w3.org/2000/svg" xmlns:xlink="http://www.w3.org/1999/xlink" x="0px" y="0px"
	 width="100px" height="100px" viewBox="0 0 100 100" enable-background="new 0 0 100 100" xml:space="preserve">
<rect opacity="0.1" fill="#94E6FB" width="100" height="100"/>
<g>
	<g>
		<linearGradient id="SVGID_1_" gradientUnits="userSpaceOnUse" x1="19.2627" y1="44.6182" x2="22.4214" y2="39.1471">
			<stop  offset="0" style="stop-color:#E5FAFF;stop-opacity:0.5"/>
			<stop  offset="1" style="stop-color:#E5FAFF"/>
		</linearGradient>
		<path fill="url(#SVGID_1_)" d="M20.842,45.041c-1.742,0-3.159-1.417-3.159-3.159s1.417-3.159,3.159-3.159
			c1.741,0,3.159,1.417,3.159,3.159S22.583,45.041,20.842,45.041z M20.842,40.359c-0.841,0-1.522,0.684-1.522,1.522
			s0.682,1.521,1.522,1.521c0.839,0,1.521-0.683,1.521-1.521S21.681,40.359,20.842,40.359z"/>
	</g>
	<g transform="translate(0.000000,512.000000) scale(0.100000,-0.100000)">
		<linearGradient id="SVGID_2_" gradientUnits="userSpaceOnUse" x1="398.7207" y1="4393.6807" x2="427.2487" y2="4443.0928">
			<stop  offset="0" style="stop-color:#E5FAFF;stop-opacity:0.5"/>
			<stop  offset="1" style="stop-color:#E5FAFF"/>
		</linearGradient>
		<path fill="url(#SVGID_2_)" d="M400.059,4864.276c-35.811-6.533-65.85-29.512-80.801-61.963
			c-2.119-4.629-4.229-9.375-4.531-10.322c-0.537-1.582-2.012-1.904-9.697-1.904c-10.01,0-15.068-1.572-17.813-5.361
			c-1.475-2.227-1.68-7.91-1.68-51.846c0-52.256,0.107-53.945,4.951-56.152c1.045-0.43,6.641-1.162,12.324-1.475l10.43-0.527
			l3.369-10.01c3.691-11.172,12.334-28.447,17.92-36.143c6.006-8.008,12.539-8.955,18.018-2.529
			c3.779,4.531,3.047,8.857-3.164,18.438c-5.156,7.91-9.063,15.908-12.227,25.078l-1.885,5.381l3.564,1.26
			c6.855,2.422,6.758,1.904,6.758,57.002v49.727l-2.959,2.852c-1.572,1.582-3.584,3.164-4.424,3.467
			c-1.26,0.43-1.055,1.582,1.475,6.748c12.012,24.873,37.52,43.506,65.439,47.842c5.059,0.732,53.623,1.055,154.883,0.84
			l147.5-0.322l8.008-2.314c23.916-6.748,43.311-22.119,55.107-43.623c4.209-7.686,4.629-9.375,2.1-9.375
			c-0.84,0-3.057-1.367-4.736-3.057l-3.057-3.057v-49.727c0-55.322-0.107-54.58,6.953-57.109c3.369-1.152,3.682-1.582,3.154-4.531
			c-0.41-1.68-3.154-8.32-6.318-14.746c-15.488-32.246-44.141-56.475-77.959-66.387c-16.445-4.736-22.129-5.156-60.693-5.264
			h-36.348l-6.846,4.844c-9.16,6.533-14.443,9.072-22.871,11.064c-12.334,2.852-23.291,0-37.617-10.01l-8.525-5.898l-37.402,0.107
			c-40.566,0-46.895,0.625-63.848,6.318c-9.385,3.164-14.023,2.842-17.285-1.367c-2.52-3.271-2.744-9.375-0.42-12.744
			c2.109-3.057,6.836-5.059,21.289-8.75c14.424-3.682,31.709-5.166,60.059-5.166h20.215v-12.012v-12.109l-5.371-4.541
			c-6.953-5.801-15.381-16.641-20.02-25.488l-3.574-6.963h-18.545h-18.545l-0.635,5.908c-0.742,7.695-4.629,13.594-10.527,16.318
			c-3.799,1.699-7.07,2.012-24.131,2.012h-19.805l-3.271-2.939l-3.262-2.959l-5.703-50.469c-4.844-43.516-5.361-50.889-4.219-53.633
			c2.432-5.791,3.906-6.006,32.891-5.684l26.436,0.313l3.799,2.949c4.531,3.477,6.738,7.275,7.686,13.271l0.742,4.326h18.018h18.018
			l3.574-7.383c5.068-10.215,15.391-22.852,24.863-30.234c34.258-26.768,80.918-26.553,114.434,0.635
			c10.84,8.74,20.332,20.752,25.605,32.559l1.992,4.424h18.857h18.76v-3.047c0-4.434,1.797-8.545,5.059-12.021
			c5.479-5.898,6.436-6.006,34.453-6.006h26.025l3.057,3.057c2.324,2.422,3.047,4.102,3.047,7.266
			c0,2.217-2.422,25.391-5.264,51.318c-3.691,32.656-5.781,48.037-6.836,49.619c-2.852,4.424-4.854,4.746-26.777,4.424
			l-20.859-0.313l-3.799-2.939c-5.049-3.799-8.105-9.912-8.105-16.025v-4.746h-19.277H639.98l-2.432,5.068
			c-3.799,7.686-10.742,16.846-18.965,24.971l-7.471,7.363v11.699v11.699l29.805,0.625c32.559,0.645,41.299,1.689,58.477,7.168
			c38.887,12.432,70.068,39.307,88.086,75.967c3.057,6.113,6.748,15.078,8.018,19.707l2.52,8.535h9.16
			c5.176,0,10.537,0.527,12.012,1.26c5.811,2.637,5.811,2.852,5.811,56.367c0,54.795,0.205,52.686-6.963,55.742
			c-2.109,0.84-7.168,1.465-12.324,1.465h-8.848l-1.27,4.336c-0.732,2.314-3.164,7.891-5.586,12.324
			c-14.541,27.813-39.092,47.305-70.176,55.84l-10.225,2.842l-150.654,0.215C432.305,4865.741,406.914,4865.536,400.059,4864.276z
			 M324.521,4732.675v-36.348h-8.965h-8.955v36.348v36.357h8.955h8.965V4732.675z M803.926,4732.675v-36.348h-8.965h-8.955v36.348
			v36.357h8.955h8.965V4732.675z M565.273,4578.534c1.797-0.85,5.908-3.477,9.268-5.693c3.369-2.314,8.223-5.156,10.859-6.221
			l4.629-2.1v-6.855c0-6.426-0.107-6.738-2.002-5.684c-1.152,0.527-6.318,2.109-11.367,3.262
			c-13.496,3.271-30.039,3.057-44.053-0.527c-5.791-1.475-10.635-2.734-10.752-2.734c-0.205,0-0.313,2.842-0.313,6.318v6.221
			l4.531,2.002c2.422,1.045,6.846,3.682,9.697,5.684C548.623,4581.366,556.426,4583.056,565.273,4578.534z M572.637,4534.491
			c19.6-4.639,37.422-18.975,46.162-37.305c5.684-11.904,7.383-19.385,7.266-32.139c-0.107-19.17-6.748-34.658-21.172-48.984
			c-9.902-9.902-19.072-15.283-31.719-18.555c-9.063-2.412-25.703-2.412-34.658-0.098c-25.186,6.738-44.678,26.24-51.426,51.416
			c-2.324,8.955-2.324,25.596,0.107,34.668c2.959,11.162,8.643,21.494,16.65,30.029
			C522.188,4533.114,546.729,4540.595,572.637,4534.491z M413.027,4468.739v-36.875h-14.229H384.57v2.529
			c0,1.367,1.689,17.275,3.701,35.4c2.002,18.125,3.682,33.506,3.682,34.346c0,1.162,2.207,1.475,10.537,1.475h10.537V4468.739z
			 M724.063,4470.321c2.09-19.072,3.887-35.605,3.887-36.563c0.107-1.689-1.26-1.895-14.121-1.895h-14.209v36.875v36.992
			l10.215-0.322l10.322-0.322L724.063,4470.321z M464.229,4467.157l-0.098-14.219H449.16h-15.068v14.219v14.229h15.068h15.068
			V4467.157z M678.535,4467.157v-14.219h-15.713h-15.674v13.057c0,7.275-0.322,13.604-0.752,14.229
			c-0.42,0.85,4.434,1.162,15.693,1.162h16.445V4467.157z"/>
		<linearGradient id="SVGID_3_" gradientUnits="userSpaceOnUse" x1="545.8887" y1="4486.0049" x2="547.8466" y2="4489.396">
			<stop  offset="0" style="stop-color:#E5FAFF;stop-opacity:0.5"/>
			<stop  offset="1" style="stop-color:#E5FAFF"/>
		</linearGradient>
		<path fill="url(#SVGID_3_)" d="M534.199,4513.31c-3.174-1.162-6.328-4.951-6.953-8.223c-0.742-3.896,1.68-9.375,4.736-11.055
			c1.26-0.635,11.055-1.055,24.131-1.055c21.797,0,22.021,0,24.756,2.529c3.779,3.467,4.531,7.373,2.412,11.895
			c-2.832,5.908-6.104,6.641-28.232,6.533C544.414,4513.935,535.029,4513.632,534.199,4513.31z"/>
		<linearGradient id="SVGID_4_" gradientUnits="userSpaceOnUse" x1="539.4629" y1="4439.0518" x2="542.7202" y2="4444.6938">
			<stop  offset="0" style="stop-color:#E5FAFF;stop-opacity:0.5"/>
			<stop  offset="1" style="stop-color:#E5FAFF"/>
		</linearGradient>
		<path fill="url(#SVGID_4_)" d="M507.002,4476.64c-4.629-2.002-7.051-7.686-5.479-12.646c2.324-7.051,1.055-6.846,54.59-6.846
			h48.359l2.832,2.744c2.119,2.109,2.754,3.896,2.754,7.158c0,5.586-2.217,8.75-7.168,10.127
			c-2.422,0.625-20.869,1.055-48.145,1.055C518.809,4478.114,509.844,4477.899,507.002,4476.64z"/>
		<linearGradient id="SVGID_5_" gradientUnits="userSpaceOnUse" x1="545.5957" y1="4413.4756" x2="547.5846" y2="4416.9204">
			<stop  offset="0" style="stop-color:#E5FAFF;stop-opacity:0.5"/>
			<stop  offset="1" style="stop-color:#E5FAFF"/>
		</linearGradient>
		<path fill="url(#SVGID_5_)" d="M531.455,4439.452c-5.381-4.326-6.006-10.234-1.582-15.176l3.047-3.477h22.656
			c22.451,0,22.764,0,25.391,2.529c1.484,1.367,2.949,3.799,3.271,5.488c0.84,3.896-1.904,9.785-5.381,11.357
			c-1.68,0.752-10.215,1.172-23.906,1.172C536.406,4441.347,533.35,4441.024,531.455,4439.452z"/>
		<linearGradient id="SVGID_6_" gradientUnits="userSpaceOnUse" x1="472.959" y1="4584.8135" x2="488.9509" y2="4612.5122">
			<stop  offset="0" style="stop-color:#E5FAFF;stop-opacity:0.5"/>
			<stop  offset="1" style="stop-color:#E5FAFF"/>
		</linearGradient>
		<path fill="url(#SVGID_6_)" d="M405.01,4816.444c-21.699-5.703-39.082-21.709-45.83-42.256c-2.529-7.588-2.529-8.535-2.529-43.096
			c0-33.613,0.107-35.713,2.432-44.258c9.482-34.443,35.186-62.158,68.057-73.32c40.996-14.023,87.881-1.055,114.424,31.387
			c6.328,7.803,9.902,10.332,14.219,10.332c4.531-0.117,6.865-1.797,12.861-9.063c39.619-47.832,111.465-51.416,155.303-7.803
			c14.219,14.121,23.076,29.502,28.564,49.316c1.992,7.168,2.314,11.689,2.734,40.039c0.322,27.07,0.107,33.076-1.377,39.824
			c-5.371,24.238-23.291,42.773-47.51,48.896c-14.971,3.779-22.236,2.52-25.195-4.648c-3.047-7.158,2.119-14.326,10.332-14.326
			c14.434-0.107,29.609-9.063,37.197-21.807c5.264-9.063,5.898-14.648,5.371-47.52c-0.43-33.291-0.84-35.83-7.686-50.791
			c-7.813-16.963-21.816-31.182-38.887-39.609c-13.916-6.855-20.547-8.32-37.402-8.32c-16.748,0.098-23.174,1.465-37.402,8.428
			c-11.279,5.479-20.859,13.164-29.707,24.023c-8.75,10.645-15.186,13.906-27.197,13.906c-12.109,0-18.32-3.164-27.91-14.541
			c-9.268-10.859-18.965-18.652-29.824-23.818c-13.584-6.533-20.117-7.9-37.09-7.998c-12.539,0-15.908,0.313-22.646,2.412
			c-29.072,9.18-49.004,29.092-58.164,58.164c-2.314,7.588-2.422,9.17-2.422,41.621v33.721l3.379,6.846
			c3.691,7.48,10.957,15.488,17.803,19.492c10,5.908,8.32,5.791,115.059,5.791c105.684,0,102.627-0.107,105.576,5.166
			c1.367,2.627,1.367,8.105,0,10.752c-2.949,5.264,0.195,5.156-107.158,5.049C418.291,4818.437,412.07,4818.329,405.01,4816.444z"/>
		<linearGradient id="SVGID_7_" gradientUnits="userSpaceOnUse" x1="645.6934" y1="4799.0127" x2="646.7285" y2="4800.8057">
			<stop  offset="0" style="stop-color:#E5FAFF;stop-opacity:0.5"/>
			<stop  offset="1" style="stop-color:#E5FAFF"/>
		</linearGradient>
		<path fill="url(#SVGID_7_)" d="M646.299,4817.489c-5.791-2.324-7.588-11.377-3.262-16.328c1.465-1.797,3.789-2.959,6.631-3.369
			c3.789-0.527,4.844-0.107,7.9,2.627c2.949,2.637,3.594,3.906,3.594,7.598C661.162,4815.595,653.574,4820.438,646.299,4817.489z"/>
		<linearGradient id="SVGID_8_" gradientUnits="userSpaceOnUse" x1="366.6699" y1="4594.5205" x2="367.6975" y2="4596.3003">
			<stop  offset="0" style="stop-color:#E5FAFF;stop-opacity:0.5"/>
			<stop  offset="1" style="stop-color:#E5FAFF"/>
		</linearGradient>
		<path fill="url(#SVGID_8_)" d="M366.768,4612.665c-9.16-5.059-5.264-19.6,5.166-19.6c3.477,0,7.471,2.422,9.053,5.381
			c2.441,4.736,1.787,8.213-2.1,12.109C374.99,4614.462,371.191,4615.087,366.768,4612.665z"/>
	</g>
	<g>
		<linearGradient id="SVGID_9_" gradientUnits="userSpaceOnUse" x1="20.1329" y1="61.6915" x2="25.394" y2="52.579">
			<stop  offset="0" style="stop-color:#E5FAFF;stop-opacity:0.5"/>
			<stop  offset="1" style="stop-color:#E5FAFF"/>
		</linearGradient>
		<path fill="url(#SVGID_9_)" d="M22.764,62.397c-2.902,0-5.264-2.36-5.264-5.262s2.361-5.263,5.264-5.263
			c2.901,0,5.262,2.361,5.262,5.263S25.665,62.397,22.764,62.397z M22.764,53.511c-1.999,0-3.625,1.626-3.625,3.624
			c0,1.999,1.626,3.625,3.625,3.625c1.998,0,3.624-1.626,3.624-3.625C26.388,55.137,24.762,53.511,22.764,53.511z"/>
	</g>
	<g>
		<linearGradient id="SVGID_10_" gradientUnits="userSpaceOnUse" x1="30.4034" y1="65.838" x2="33.551" y2="60.3862">
			<stop  offset="0" style="stop-color:#E5FAFF;stop-opacity:0.5"/>
			<stop  offset="1" style="stop-color:#E5FAFF"/>
		</linearGradient>
		<path fill="url(#SVGID_10_)" d="M31.978,66.26c-1.736,0-3.148-1.412-3.148-3.148c0-1.735,1.412-3.147,3.148-3.147
			s3.148,1.412,3.148,3.147C35.126,64.848,33.714,66.26,31.978,66.26z M31.978,61.602c-0.832,0-1.51,0.677-1.51,1.51
			s0.678,1.511,1.51,1.511c0.833,0,1.51-0.678,1.51-1.511S32.811,61.602,31.978,61.602z"/>
	</g>
</g>
</svg>
