<?xml version="1.0" encoding="utf-8"?>
<!-- Generator: Adobe Illustrator 16.0.0, SVG Export Plug-In . SVG Version: 6.00 Build 0)  -->
<!DOCTYPE svg PUBLIC "-//W3C//DTD SVG 1.1//EN" "http://www.w3.org/Graphics/SVG/1.1/DTD/svg11.dtd">
<svg version="1.1" id="圖層_1" xmlns="http://www.w3.org/2000/svg" xmlns:xlink="http://www.w3.org/1999/xlink" x="0px" y="0px"
	 width="155px" height="60px" viewBox="0 0 155 60" enable-background="new 0 0 155 60" xml:space="preserve">
<g>
	<g>
		<g>
			<path fill="none" stroke="#94E6FB" stroke-miterlimit="10" d="M1.762,34.112c-0.023-0.825,0.188-1.56,0.633-2.204
				c-0.352-0.283-0.563-0.555-0.633-0.813c-0.094-0.31-0.094-0.593,0-0.851c0.141-0.232,0.328-0.36,0.563-0.387
				c0.469-0.077,1.172-0.322,2.109-0.734c2.789-1.238,6.469-2.32,11.039-3.249c3.867-0.851,6.539-1.289,8.016-1.314
				c1.359-0.077,2.355,0.206,2.988,0.851c0.469,0.49,0.656,1.096,0.563,1.817c-0.164,0.696-0.844,1.044-2.039,1.044
				c-0.234,0-0.434,0.014-0.598,0.039c-4.219,0.207-9.105,1.199-14.66,2.978c-1.617,0.567-2.988,0.941-4.113,1.122
				c-0.117,0.025-0.223,0.052-0.316,0.077c-0.023,0.052-0.035,0.129-0.035,0.231c0.047,0.31,0.398,0.465,1.055,0.465
				c0.984,0,2.215-0.271,3.691-0.813c2.297-0.799,5.133-1.599,8.508-2.397c2.086-0.516,3.516-0.761,4.289-0.735
				c0.961-0.051,1.875,0.116,2.742,0.503c1.078,0.413,1.84,1.006,2.285,1.779c0.75,1.16,0.949,2.707,0.598,4.641
				c1.453,1.624,2.543,3.3,3.27,5.027c0.047,0.077,0.082,0.168,0.105,0.271c1.336,3.326,1.441,6.033,0.316,8.121
				c-0.492,0.799-1.313,1.393-2.461,1.779c-2.438,0.799-4.547,0.773-6.328-0.078c-0.891-0.541-1.523-1.16-1.898-1.855
				c-0.75-1.264-1.125-2.746-1.125-4.447l-0.035-0.039c-1.219-0.258-2.566-0.373-4.043-0.348c1.102,0.748,2.051,1.598,2.848,2.552
				c1.078,1.418,1.617,2.449,1.617,3.094c0,0.773-0.293,1.405-0.879,1.896c-0.539,0.438-1.137,0.566-1.793,0.387
				c-0.656-0.155-1.348-0.864-2.074-2.127c-0.586-1.006-1.313-1.986-2.18-2.939c0,2.372-0.105,3.764-0.316,4.177
				c-0.375,0.902-0.914,1.366-1.617,1.392c-1.102,0.078-2.109-0.245-3.023-0.967c-1.055-0.851-2.039-1.74-2.953-2.668
				c-0.023,0.206-0.047,0.399-0.07,0.58c-0.117,1.212-0.457,2.101-1.02,2.668c-0.305,0.232-0.645,0.349-1.02,0.349
				c-0.328-0.026-0.68-0.155-1.055-0.387c-0.82-0.619-1.23-1.509-1.23-2.669c0.023-0.181,0.082-0.348,0.176-0.502
				c0.188-0.284,0.434-0.773,0.738-1.47c0.234-0.619,0.504-1.174,0.809-1.663c-0.867-0.104-1.559-0.322-2.074-0.657
				c-0.75-0.722-1.113-1.405-1.09-2.05c0.023-0.489,0.188-0.863,0.492-1.121c0.328-0.258,0.609-0.335,0.844-0.232
				c0.445,0.129,1.172-0.013,2.18-0.426c0.117-0.077,0.258-0.128,0.422-0.154c-0.867-0.645-1.441-1.624-1.723-2.939
				c-0.211-0.851-0.176-1.598,0.105-2.242c0.094-0.258,0.188-0.438,0.281-0.542C2.078,35.286,1.785,34.68,1.762,34.112z
				 M1.023,20.268c0.68-1.108,1.594-2.063,2.742-2.861c0.211-0.181,0.328-0.361,0.352-0.542c0.211-0.593,0.633-1.082,1.266-1.469
				c0.656-0.387,1.688-0.528,3.094-0.426c1.406,0.129,2.543,0.594,3.41,1.393c0.773,0.748,1.16,1.715,1.16,2.9
				c6.234-3.042,11.18-3.468,14.836-1.276c1.477,0.902,2.262,1.946,2.355,3.132c0.07,0.852-0.082,1.521-0.457,2.012
				c-0.586,0.567-1.523,0.761-2.813,0.58c-1.055-0.206-1.898-0.361-2.531-0.465c-1.336-0.36-2.953-0.219-4.852,0.426
				c-1.898,0.671-3.902,1.289-6.012,1.856c-1.641,0.387-3.34,0.928-5.098,1.624c-2.016,0.748-3.914,0.567-5.695-0.541
				c-1.547-1.031-2.367-2.282-2.461-3.752C0.203,22.008,0.438,21.145,1.023,20.268z M9.883,20.848
				c-2.273-0.206-4.125,0.014-5.555,0.657c-0.586,0.207-0.914,0.439-0.984,0.696c0.047,0.464,0.398,0.787,1.055,0.967
				c0.727,0.181,1.98-0.244,3.762-1.276C8.723,21.505,9.297,21.157,9.883,20.848z M8.195,37.709c-1.477,0.052-2.426,0-2.848-0.155
				c0.07,0.594,0.188,1.083,0.352,1.47c0.211,0.31,0.398,0.451,0.563,0.426c0.188,0.025,0.469-0.168,0.844-0.58
				C7.457,38.482,7.82,38.096,8.195,37.709z M6.332,47.377c1.523,0.154,2.332,0.18,2.426,0.077c0.07-0.104,0.117-0.787,0.141-2.05
				c-0.844,0.155-1.664,0.323-2.461,0.503c0.023,0.566,0,1.044-0.07,1.431C6.344,47.338,6.332,47.351,6.332,47.377z M7.176,40.609
				c0.609-0.232,1.23-0.399,1.863-0.503c0.047-1.134,0-1.779-0.141-1.934c-0.469,0.49-1.02,1.276-1.652,2.359
				C7.223,40.558,7.199,40.584,7.176,40.609z M16,36.046c-1.359,0.335-2.285,0.58-2.777,0.734c0.164,0.465,0.281,1.238,0.352,2.32
				c0.586-0.67,1.313-1.56,2.18-2.668C15.848,36.278,15.93,36.149,16,36.046z M18.039,39.256c0.094-0.025,0.188-0.025,0.281,0
				c1.008,0.077,1.84,0.284,2.496,0.618c0.305-1.83,0.68-3.222,1.125-4.176c0.258-0.567,0.375-0.929,0.352-1.083
				c-0.047-0.129-0.117-0.232-0.211-0.31c-0.234-0.18-1.195,0.052-2.883,0.696c0,0.025,0,0.052,0,0.077
				c0.375,1.367,0.141,2.565-0.703,3.597C18.332,38.882,18.18,39.075,18.039,39.256z M29.043,41.499
				c-0.328-1.212-0.715-2.282-1.16-3.21c-1.195,3.48-1.652,5.466-1.371,5.955c0.188,0.387,0.539,0.567,1.055,0.542
				c0.422-0.078,0.785-0.284,1.09-0.619C29.195,43.497,29.324,42.607,29.043,41.499z"/>
			<path fill="none" stroke="#94E6FB" stroke-miterlimit="10" d="M44.707,43.857c-0.26,4.383-0.916,7.193-1.967,8.431
				c-0.793,0.876-1.703,0.876-2.729,0c-0.713-0.696-1.117-1.251-1.207-1.663c-0.117-0.361-0.014-0.786,0.311-1.276
				c0.689-1.031,1.188-2.333,1.5-3.905c-0.104-0.025-0.182-0.039-0.232-0.039c-0.768-0.18-1.449-0.593-2.047-1.237
				c-0.506-0.67-0.766-1.47-0.779-2.397c-0.025-0.954,0.332-1.379,1.072-1.276c0.531,0.052,1.449-0.245,2.746-0.89
				c0.053-0.489,0.104-0.902,0.156-1.237c0.156-1.289,0.131-2.011-0.078-2.166c-0.143-0.128-0.26-0.309-0.35-0.541
				c-0.559,0.026-1-0.09-1.326-0.348c-0.922-0.748-1.389-1.56-1.402-2.437c-0.025-0.696,0.162-1.135,0.566-1.315
				c0.557-0.206,1.584-0.824,3.078-1.855c1.531-1.186,2.986-2.063,4.363-2.63c0.779-1.443,1.604-3.068,2.475-4.873
				c0.285-0.566,0.363-1.018,0.234-1.354c-0.793-1.03-2.033,0.464-3.723,4.486c-0.727,1.908-1.35,2.952-1.871,3.132
				c-0.727,0.207-1.623-0.348-2.688-1.662c-0.844-1.212-1.332-2.643-1.461-4.293c-0.156-1.289-0.131-2.333,0.078-3.133
				c0.182-0.773,0.492-1.275,0.936-1.508c0.324-0.154,0.668-0.025,1.031,0.387c0.547,0.594,0.877,1.521,0.994,2.784
				c0.064,0.825,0.123,1.47,0.176,1.934c0.039,0.387,0.123,0.619,0.254,0.696c0.104,0.077,0.213,0.026,0.33-0.154
				c0.727-1.108,1.643-2.565,2.748-4.37c0.883-1.495,1.76-2.41,2.629-2.746c0.676-0.31,1.371-0.373,2.084-0.193
				c0.703,0.181,1.268,0.632,1.697,1.354c0.414,0.645,0.668,1.405,0.758,2.282c0.039,1.366-0.336,3.532-1.129,6.496
				c0.26,0.104,0.494,0.232,0.701,0.387c1.156,0.929,1.76,2.089,1.813,3.48c0.039,1.213-0.123,2.102-0.486,2.669
				c-0.377,0.696-1.021,0.761-1.93,0.193c-0.313-0.181-0.631-0.283-0.955-0.31c0.078,0.722,0.123,1.792,0.137,3.21
				c1.117-0.025,1.994,0.129,2.629,0.464c0.963,0.645,1.461,1.74,1.5,3.287c0.027,1.495-0.143,2.488-0.506,2.978
				c-0.363,0.517-1.285,0.529-2.766,0.039c-0.248-0.129-0.486-0.206-0.723-0.232c0.053,0.903,0.105,1.792,0.156,2.669
				c0.17,3.583,0.092,5.813-0.232,6.689c-0.313,0.825-0.807,1.251-1.482,1.276c-0.635,0.052-1.109-0.271-1.42-0.967
				c-0.391-0.773-0.566-2.05-0.527-3.828c0.014-1.831,0.014-3.764,0-5.801C46.857,42.774,45.811,43.214,44.707,43.857z
				 M47.553,33.726c-0.119-0.154-0.215-0.283-0.293-0.387c-1,0.31-1.916,0.734-2.748,1.276c0.182,0.645,0.273,1.701,0.273,3.171
				c1.117-0.593,2.131-1.019,3.039-1.276C47.838,34.834,47.746,33.906,47.553,33.726z"/>
			<path fill="none" stroke="#94E6FB" stroke-miterlimit="10" d="M102.609,51.282c-0.656,0.852-1.699,1.264-3.129,1.238
				c-2.836-0.465-5.309-1.779-7.418-3.945c-0.914,0.155-1.863,0.349-2.848,0.58c-1.195,0.206-2.156-0.193-2.883-1.198
				c-0.773-1.006-1.242-2.526-1.406-4.563c-0.727-0.103-1.313-0.206-1.758-0.31c0.094,0.696,0.211,1.367,0.352,2.011
				c0.469,2.553,0.516,4.306,0.141,5.26c-0.422,0.902-1.172,1.34-2.25,1.314c-1.57,0.025-3.07-0.786-4.5-2.436
				c-0.867-1.006-1.477-2.141-1.828-3.403c-1.102-3.377-0.457-6.574,1.934-9.591c0.188-0.258,0.281-0.477,0.281-0.657
				s-0.152-0.322-0.457-0.426c-0.867-0.387-1.594-1.018-2.18-1.895c-0.258-0.412-0.434-0.813-0.527-1.199
				c-0.75-2.681,0.527-5.04,3.832-7.077c0.234-0.128,0.352-0.283,0.352-0.464c0-0.231-0.176-0.477-0.527-0.734
				c-1.688-1.47-2.52-2.759-2.496-3.867c0.07-0.979,0.422-1.817,1.055-2.514c0.586-0.67,1.348-0.967,2.285-0.89
				c1.453,0.104,2.742,0.941,3.867,2.514c1.172,1.624,1.723,2.914,1.652,3.867c0.047,1.341-0.352,2.372-1.195,3.094
				c0.023,2.011,0.047,3.919,0.07,5.724c0.328,0.516,0.48,1.083,0.457,1.701c0,0.542-0.176,1.135-0.527,1.779
				c0,0.181,0,0.322,0,0.425c-0.094,1.444-0.105,2.823-0.035,4.139c0.633-0.284,1.559-0.426,2.777-0.426
				c0.047-0.232,0.105-0.438,0.176-0.619c0.609-2.113,0.762-3.3,0.457-3.558c-1.313-1.108-1.969-2.101-1.969-2.978
				c-0.047-0.902,0.504-1.714,1.652-2.437c0.563-0.412,1.207-0.812,1.934-1.198c-1.406-0.438-2.391-1.251-2.953-2.437
				c-0.352-0.799-0.375-1.817-0.07-3.056c0.258-1.082,1.266-2.255,3.023-3.519c0.398-0.335,0.48-0.632,0.246-0.89
				c-0.375-0.36-0.563-0.786-0.563-1.276c0.023-0.696,0.258-1.237,0.703-1.624c0.422-0.335,1.102-0.516,2.039-0.541
				c1.313,0.025,2.297,0.283,2.953,0.773c0.727,0.567,1.195,1.212,1.406,1.934c0.422,1.443-0.316,2.436-2.215,2.978
				c-1.969,0.49-3.316,1.47-4.043,2.938c-0.211,0.49-0.164,0.852,0.141,1.083c0.375,0.31,0.984,0.026,1.828-0.851
				c4.289-4.77,7.523-7.063,9.703-6.884c1.219,0,2.438,0.657,3.656,1.973c1.242,1.47,1.863,2.72,1.863,3.751
				c-0.047,1.314-0.328,2.334-0.844,3.055c-0.633,0.773-1.594,1.213-2.883,1.315c-2.203,0.206-4.406,0.709-6.609,1.508
				c-2.883,1.006-5.145,2.102-6.785,3.287c-0.328,0.232-0.504,0.4-0.527,0.503c-0.023,0.052-0.023,0.154,0,0.31
				c0.305-0.206,0.668-0.181,1.09,0.077c0.445,0.207,0.926,0.039,1.441-0.503c3.961-3.042,7.242-4.099,9.844-3.171
				c1.313,0.567,2.355,1.482,3.129,2.746c0.563,0.928,0.844,2.32,0.844,4.176c1.313,0.439,2.086,1.058,2.32,1.856
				c0.352,1.16,0.199,2.102-0.457,2.823c-0.492,0.438-1.207,0.645-2.145,0.619c-0.07,0.695-0.117,1.237-0.141,1.624
				c-0.023,0.052-0.035,0.116-0.035,0.193c0.68,0.077,1.266,0.387,1.758,0.928c0.539,0.594,0.797,1.251,0.773,1.973
				c-0.07,0.566-0.328,1.096-0.773,1.585c-0.563,0.593-1.23,0.761-2.004,0.503c-0.047-0.025-0.082-0.038-0.105-0.038
				C103.418,49.633,103.102,50.638,102.609,51.282z M81.832,26.688c-1.078,0.464-1.84,0.851-2.285,1.16
				c-0.375,0.231-0.551,0.425-0.527,0.58c0,0.206,0.152,0.361,0.457,0.464c0.82,0.387,1.523,0.825,2.109,1.314
				C81.656,29.046,81.738,27.873,81.832,26.688z M81.199,37.322c-1.313,1.366-1.957,2.565-1.934,3.597
				c0.164,0.645,0.398,1.082,0.703,1.314c0.352,0.31,0.609,0.426,0.773,0.348c0.258-0.025,0.387-0.244,0.387-0.657
				C81.105,40.507,81.129,38.973,81.199,37.322z M91.43,44.051c0.047-0.489,0.117-0.979,0.211-1.47
				c-1.031,0.284-1.91,0.517-2.637,0.696c0.023,0.336,0.047,0.542,0.07,0.619C89.496,44.387,90.281,44.438,91.43,44.051z
				 M89.777,38.676c0.727-0.258,1.559-0.555,2.496-0.89c0.07-0.283,0.105-0.58,0.105-0.89c-1.383,0.181-2.18,0.271-2.391,0.271
				C89.941,37.606,89.871,38.108,89.777,38.676z M94.172,48.188c0.398,0.129,0.844,0.284,1.336,0.465
				c1.102,0.36,1.734,0.425,1.898,0.193c0.047-0.232,0.117-0.58,0.211-1.045C96.539,47.88,95.391,48.008,94.172,48.188z
				 M98.355,42.891c0.07-0.516,0.117-1.005,0.141-1.47c0-0.128,0-0.244,0-0.348c-0.258-0.052-0.926,0.039-2.004,0.271
				c-0.047,0.542-0.082,1.097-0.105,1.663C97.043,42.93,97.699,42.891,98.355,42.891z M98.777,33.068
				c-0.445-0.181-0.855-0.193-1.23-0.039c-0.234,0.077-0.504,0.245-0.809,0.503c0.305,0.567,0.422,1.47,0.352,2.707
				c0.68-0.206,1.336-0.322,1.969-0.348C99.246,34.345,99.152,33.403,98.777,33.068z M101.73,21.931
				c-0.117-0.335-0.328-0.541-0.633-0.619c-0.234-0.18-0.504-0.219-0.809-0.115c-0.398,0.154-1.301,1.237-2.707,3.248
				c1.172-0.566,2.473-1.173,3.902-1.817C101.719,22.344,101.801,22.111,101.73,21.931z"/>
			<path fill="none" stroke="#94E6FB" stroke-miterlimit="10" d="M124.76,37.283c-2.672,4.718-4.289,7.812-4.852,9.281
				c-0.609,1.47-1.523,2.449-2.742,2.939c-1.008,0.387-2.051,0.373-3.129-0.039c-1.078-0.516-1.98-1.198-2.707-2.05
				c-0.68-0.876-1.02-1.74-1.02-2.591c0.047-0.799,0.387-1.25,1.02-1.354c1.008-0.231,2.016-1.354,3.023-3.364
				c0.938-1.934,2.086-4.034,3.445-6.304c2.25-4.047,4.043-6.961,5.379-8.739c1.359-1.65,1.652-2.823,0.879-3.52
				c-0.703-0.645-1.102-1.327-1.195-2.05c-0.094-0.722,0.047-1.354,0.422-1.895c0.539-0.696,1.242-1.006,2.109-0.929
				c1.078,0.026,2.191,0.71,3.34,2.05c1.078,1.187,1.699,2.721,1.863,4.603c0.117,1.599-0.633,3.982-2.25,7.154
				c-0.398,0.748-0.773,1.482-1.125,2.204c1.125,0.31,2.355,0.734,3.691,1.276c5.039,2.217,8.484,4.718,10.336,7.502
				c1.406,2.475,1.957,4.383,1.652,5.724c-0.305,1.314-0.809,2.217-1.512,2.707c-0.82,0.566-1.758,0.722-2.813,0.464
				c-1.148-0.31-2.473-1.599-3.973-3.867C132.119,42.774,128.838,39.707,124.76,37.283z"/>
			<g>
				<path fill="#94E6FB" d="M61.49,43.397c-0.389,0-0.691,0.052-0.906,0.157c-0.238,0.115-0.355,0.312-0.355,0.589
					c0,0.074,0.014,0.126,0.045,0.156c0.031,0.029,0.082,0.044,0.152,0.044h1.848c0.1,0,0.172-0.02,0.215-0.063
					c0.041-0.041,0.063-0.11,0.063-0.207C62.551,43.622,62.197,43.397,61.49,43.397z"/>
				<path fill="#94E6FB" d="M69.223,46.615c-0.115-0.033-0.23-0.058-0.344-0.075V22.884c0-3.1-1.227-4.605-3.75-4.605H60.76
					c-0.098-0.226-0.26-0.414-0.467-0.542v-0.522h0.422c0.076,0,0.137-0.052,0.137-0.114v-2.121c0-0.064-0.061-0.116-0.137-0.116
					h-2.096c-0.074,0-0.137,0.052-0.137,0.116V17.1c0,0.063,0.063,0.114,0.137,0.114h0.42v0.522
					c-0.334,0.209-0.557,0.579-0.557,1.003c0,0.423,0.223,0.793,0.557,1.003v0.542c-2.496,0.279-4.438,2.396-4.438,4.969v24.609
					c0,2.761,2.236,5,5,5c2.762,0,5-2.239,5-5V25.253c0-2.525-1.873-4.614-4.309-4.951v-0.56c0.207-0.129,0.369-0.317,0.467-0.542
					h4.369c1.398,0,2.83,0.437,2.83,3.684v23.679c-0.93,0.19-1.723,0.874-2.004,1.846c-0.408,1.397,0.395,2.86,1.791,3.268
					c1.398,0.407,2.861-0.396,3.27-1.793C71.422,48.485,70.619,47.022,69.223,46.615z M63.027,45.323
					c0.006,0.076,0.01,0.129,0.01,0.158c0,0.104-0.023,0.188-0.074,0.253c-0.049,0.063-0.113,0.097-0.193,0.097
					c-0.055,0-0.098-0.014-0.131-0.043c-0.029-0.028-0.055-0.075-0.074-0.141c-0.016-0.062-0.041-0.103-0.076-0.124
					c-0.037-0.022-0.105-0.039-0.209-0.051c-0.121-0.013-0.354-0.024-0.697-0.034c-0.346-0.01-0.689-0.016-1.029-0.016
					c-0.133,0-0.223,0.011-0.268,0.03c-0.045,0.021-0.08,0.067-0.107,0.142c-0.041,0.106-0.111,0.159-0.213,0.159
					c-0.076,0-0.139-0.036-0.182-0.109c-0.045-0.073-0.064-0.175-0.064-0.307c0-0.044,0-0.095,0.002-0.153
					c0.004-0.13,0.006-0.224,0.006-0.283c0-0.22-0.006-0.469-0.021-0.746c-0.004-0.06-0.004-0.133-0.004-0.221
					c0-0.354,0.041-0.633,0.125-0.838c0.123-0.307,0.332-0.536,0.623-0.69c0.258-0.137,0.566-0.206,0.922-0.206
					c0.18,0,0.359,0.024,0.541,0.076c0.182,0.051,0.338,0.121,0.469,0.206c0.268,0.18,0.455,0.426,0.563,0.741
					c0.064,0.185,0.098,0.383,0.098,0.593l-0.012,0.28l-0.006,0.241c-0.008,0.187-0.01,0.351-0.01,0.492v0.168
					C63.014,45.095,63.018,45.203,63.027,45.323z M62.766,41.504c-0.072,0-0.139-0.05-0.201-0.149
					c-0.047-0.074-0.113-0.12-0.195-0.134c-0.182-0.029-0.566-0.044-1.154-0.044c-0.408,0-0.67,0.02-0.783,0.061
					c-0.066,0.021-0.125,0.073-0.178,0.155c-0.043,0.063-0.078,0.105-0.107,0.127c-0.027,0.022-0.064,0.032-0.109,0.032
					c-0.068,0-0.123-0.032-0.164-0.096c-0.041-0.064-0.076-0.177-0.107-0.34c-0.041-0.192-0.061-0.388-0.061-0.585
					c0-0.176,0.016-0.343,0.047-0.498c0.045-0.21,0.137-0.315,0.275-0.315c0.047,0,0.08,0.011,0.104,0.032
					c0.023,0.021,0.057,0.073,0.102,0.158c0.037,0.07,0.117,0.118,0.242,0.14c0.123,0.022,0.365,0.034,0.725,0.034
					c0.607,0,0.984-0.015,1.129-0.044c0.047-0.011,0.082-0.028,0.107-0.05c0.023-0.022,0.051-0.062,0.08-0.117
					c0.047-0.103,0.117-0.153,0.207-0.153c0.127,0,0.215,0.096,0.262,0.283c0.051,0.203,0.076,0.453,0.076,0.747
					C63.061,41.252,62.963,41.504,62.766,41.504z M63.023,37.567c-0.027,0.045-0.057,0.08-0.09,0.105
					c-0.035,0.025-0.096,0.058-0.186,0.096l-2.15,0.947c-0.121,0.053-0.203,0.101-0.246,0.143c-0.045,0.042-0.072,0.104-0.088,0.182
					c-0.018,0.093-0.076,0.139-0.176,0.139c-0.123,0-0.217-0.081-0.283-0.243c-0.066-0.161-0.1-0.395-0.1-0.696
					c0-0.315,0.025-0.547,0.074-0.695s0.125-0.222,0.23-0.222c0.066,0,0.127,0.04,0.186,0.12c0.043,0.062,0.084,0.093,0.121,0.093
					c0.035,0,0.084-0.014,0.15-0.041l0.672-0.29c0.1-0.042,0.148-0.089,0.148-0.141s-0.025-0.097-0.078-0.137
					s-0.156-0.095-0.311-0.163c-0.277-0.122-0.439-0.192-0.49-0.213c-0.051-0.02-0.09-0.029-0.115-0.029
					c-0.055,0-0.1,0.036-0.139,0.108c-0.043,0.08-0.098,0.12-0.164,0.12c-0.189,0-0.285-0.247-0.285-0.739
					c0-0.244,0.021-0.418,0.061-0.519c0.041-0.102,0.111-0.152,0.209-0.152c0.119,0,0.186,0.066,0.203,0.199
					c0.012,0.094,0.027,0.155,0.049,0.183c0.035,0.05,0.127,0.108,0.27,0.177l2.217,1.063c0.137,0.064,0.23,0.127,0.283,0.185
					c0.051,0.06,0.076,0.133,0.076,0.223C63.072,37.442,63.057,37.509,63.023,37.567z M60.791,29.589
					c-0.199,0-0.338,0.012-0.41,0.035c-0.074,0.022-0.129,0.071-0.166,0.146c-0.029,0.06-0.061,0.103-0.096,0.126
					c-0.035,0.025-0.078,0.037-0.133,0.037c-0.133,0-0.219-0.087-0.256-0.266c-0.018-0.073-0.025-0.199-0.025-0.38
					c0-0.232,0.016-0.395,0.043-0.484c0.045-0.142,0.129-0.213,0.254-0.213c0.104,0,0.182,0.059,0.234,0.175
					c0.02,0.046,0.037,0.077,0.055,0.095c0.016,0.017,0.039,0.031,0.072,0.043c0.104,0.042,0.303,0.064,0.596,0.065h0.777
					c0.119,0,0.283-0.001,0.49-0.002c0.279-0.002,0.48,0.015,0.605,0.048c0.154,0.042,0.23,0.117,0.23,0.228
					c0,0.047-0.01,0.089-0.029,0.123c-0.021,0.035-0.068,0.093-0.145,0.173l-1.268,1.373c-0.088,0.097-0.133,0.176-0.133,0.238
					c0,0.095,0.135,0.142,0.404,0.142c0.221,0,0.371-0.012,0.453-0.036c0.08-0.023,0.141-0.072,0.18-0.146
					c0.053-0.104,0.121-0.154,0.203-0.154c0.223,0,0.332,0.23,0.332,0.691c0,0.209-0.027,0.37-0.084,0.485s-0.137,0.173-0.24,0.173
					c-0.053,0-0.096-0.012-0.121-0.033c-0.027-0.021-0.064-0.07-0.109-0.146c-0.045-0.072-0.123-0.116-0.236-0.133
					c-0.205-0.025-0.502-0.039-0.887-0.039c-0.41,0-0.709,0.023-0.896,0.07c-0.068,0.017-0.119,0.038-0.154,0.064
					c-0.031,0.026-0.064,0.069-0.094,0.129c-0.035,0.07-0.07,0.118-0.104,0.146c-0.033,0.026-0.072,0.04-0.121,0.04
					c-0.154,0-0.25-0.127-0.289-0.382c-0.014-0.086-0.02-0.238-0.02-0.454c0-0.123,0.01-0.213,0.031-0.27
					c0.018-0.057,0.064-0.123,0.133-0.2l1.041-1.153c0.098-0.107,0.146-0.186,0.146-0.234
					C61.057,29.629,60.967,29.589,60.791,29.589z M59.752,33.316c0.045-0.21,0.137-0.314,0.275-0.314c0.047,0,0.08,0.01,0.104,0.03
					c0.023,0.021,0.057,0.074,0.102,0.159c0.037,0.071,0.117,0.117,0.242,0.141c0.123,0.022,0.365,0.033,0.725,0.033
					c0.607,0,0.984-0.015,1.129-0.045c0.047-0.011,0.082-0.026,0.107-0.049c0.023-0.022,0.051-0.062,0.08-0.117
					c0.047-0.102,0.117-0.152,0.207-0.152c0.127,0,0.215,0.094,0.262,0.282c0.051,0.204,0.076,0.453,0.076,0.748
					c0,0.503-0.098,0.754-0.295,0.754c-0.072,0-0.139-0.05-0.201-0.147c-0.047-0.076-0.113-0.12-0.195-0.134
					c-0.182-0.029-0.566-0.044-1.154-0.044c-0.408,0-0.67,0.02-0.783,0.06c-0.066,0.021-0.125,0.073-0.178,0.155
					c-0.043,0.063-0.078,0.105-0.107,0.128c-0.027,0.021-0.064,0.032-0.109,0.032c-0.068,0-0.123-0.032-0.164-0.097
					c-0.041-0.063-0.076-0.178-0.107-0.339c-0.041-0.193-0.061-0.388-0.061-0.587C59.705,33.638,59.721,33.473,59.752,33.316z
					 M60.457,24.766c0.137,0,0.248,0.034,0.332,0.102s0.127,0.155,0.127,0.265c0,0.09-0.033,0.178-0.102,0.265
					c-0.02,0.026-0.094,0.09-0.223,0.19c-0.215,0.171-0.324,0.366-0.324,0.587c0,0.2,0.076,0.36,0.229,0.478
					c0.15,0.118,0.355,0.178,0.611,0.178c0.379,0,0.703-0.094,0.971-0.282c0.098-0.071,0.174-0.156,0.232-0.255
					s0.088-0.196,0.088-0.294c0-0.08-0.027-0.147-0.082-0.198c-0.055-0.052-0.127-0.077-0.211-0.077
					c-0.078,0-0.131,0.021-0.164,0.064c-0.014,0.018-0.02,0.032-0.021,0.047c-0.004,0.015-0.004,0.06-0.004,0.134
					c0,0.066-0.021,0.122-0.066,0.166c-0.043,0.043-0.1,0.065-0.166,0.065c-0.131,0-0.225-0.085-0.281-0.254
					c-0.061-0.188-0.09-0.403-0.09-0.646c0-0.261,0.027-0.48,0.082-0.657c0.055-0.169,0.152-0.253,0.295-0.253
					c0.057,0,0.105,0.02,0.148,0.058c0.043,0.039,0.068,0.089,0.076,0.15c0.008,0.054,0.02,0.089,0.035,0.105
					c0.018,0.017,0.059,0.033,0.123,0.05c0.254,0.066,0.467,0.196,0.635,0.39c0.117,0.133,0.207,0.293,0.273,0.479
					c0.064,0.188,0.098,0.385,0.098,0.593c0,0.338-0.082,0.647-0.242,0.931c-0.162,0.29-0.393,0.511-0.686,0.662
					c-0.246,0.126-0.512,0.189-0.795,0.189c-0.289,0-0.563-0.074-0.82-0.227c-0.281-0.16-0.494-0.385-0.645-0.674
					c-0.135-0.252-0.203-0.539-0.203-0.861c0-0.203,0.031-0.393,0.09-0.572c0.027-0.08,0.039-0.135,0.039-0.164
					c0-0.031-0.018-0.097-0.053-0.194c-0.012-0.033-0.018-0.065-0.018-0.101c0-0.086,0.053-0.168,0.158-0.247
					C60.072,24.829,60.258,24.766,60.457,24.766z M68.879,46.942c0.076,0.013,0.154,0.03,0.232,0.052
					c0.492,0.145,0.896,0.444,1.178,0.829l-0.457,0.289c-0.213-0.277-0.512-0.493-0.871-0.599c-0.027-0.009-0.055-0.016-0.082-0.021
					V46.942z M67.959,46.969v0.562c-0.369,0.12-0.689,0.362-0.904,0.693l-0.479-0.249C66.889,47.465,67.391,47.107,67.959,46.969z
					 M66.332,48.519c0.029-0.095,0.064-0.187,0.104-0.275l0.479,0.251c-0.023,0.057-0.045,0.115-0.063,0.176
					c-0.127,0.435-0.07,0.879,0.121,1.252l-0.459,0.29C66.244,49.712,66.16,49.108,66.332,48.519z M67.857,51.297
					c-0.492-0.144-0.896-0.443-1.178-0.828l0.455-0.289c0.213,0.277,0.512,0.493,0.873,0.599c0.131,0.038,0.262,0.058,0.393,0.064
					l0.021,0.54C68.236,51.378,68.045,51.352,67.857,51.297z M68.727,51.372l-0.021-0.541c0.492-0.065,0.936-0.343,1.207-0.765
					l0.479,0.251C70.027,50.91,69.408,51.298,68.727,51.372z M70.635,49.772c-0.027,0.095-0.063,0.187-0.102,0.275l-0.479-0.25
					c0.023-0.059,0.045-0.116,0.063-0.177c0.127-0.436,0.07-0.878-0.123-1.253l0.459-0.29
					C70.725,48.579,70.807,49.183,70.635,49.772z"/>
			</g>
		</g>
		<g>
			<linearGradient id="SVGID_1_" gradientUnits="userSpaceOnUse" x1="16.4707" y1="53.8555" x2="16.4707" y2="15.7588">
				<stop  offset="0" style="stop-color:#94E6FB;stop-opacity:0.1"/>
				<stop  offset="1" style="stop-color:#94E6FB;stop-opacity:0"/>
			</linearGradient>
			<path fill="url(#SVGID_1_)" d="M1.76,34.934c-0.023-0.825,0.188-1.56,0.633-2.204c-0.352-0.283-0.563-0.555-0.633-0.813
				c-0.094-0.31-0.094-0.593,0-0.851c0.141-0.232,0.328-0.36,0.563-0.387c0.469-0.077,1.172-0.322,2.109-0.734
				c2.789-1.238,6.469-2.32,11.039-3.249c3.867-0.851,6.539-1.289,8.016-1.314c1.359-0.077,2.355,0.206,2.988,0.851
				c0.469,0.49,0.656,1.096,0.563,1.817c-0.164,0.696-0.844,1.044-2.039,1.044c-0.234,0-0.434,0.014-0.598,0.039
				c-4.219,0.207-9.105,1.199-14.66,2.978c-1.617,0.567-2.988,0.941-4.113,1.122c-0.117,0.025-0.223,0.052-0.316,0.077
				c-0.023,0.052-0.035,0.129-0.035,0.231c0.047,0.31,0.398,0.465,1.055,0.465c0.984,0,2.215-0.271,3.691-0.813
				c2.297-0.799,5.133-1.599,8.508-2.397c2.086-0.516,3.516-0.761,4.289-0.735c0.961-0.051,1.875,0.116,2.742,0.503
				c1.078,0.413,1.84,1.006,2.285,1.779c0.75,1.16,0.949,2.707,0.598,4.641c1.453,1.624,2.543,3.3,3.27,5.027
				c0.047,0.077,0.082,0.168,0.105,0.271c1.336,3.326,1.441,6.033,0.316,8.121c-0.492,0.799-1.313,1.393-2.461,1.779
				c-2.438,0.799-4.547,0.773-6.328-0.078c-0.891-0.541-1.523-1.16-1.898-1.855c-0.75-1.264-1.125-2.746-1.125-4.447l-0.035-0.039
				c-1.219-0.258-2.566-0.373-4.043-0.348c1.102,0.748,2.051,1.598,2.848,2.552c1.078,1.418,1.617,2.449,1.617,3.094
				c0,0.773-0.293,1.405-0.879,1.896c-0.539,0.438-1.137,0.566-1.793,0.387c-0.656-0.155-1.348-0.864-2.074-2.127
				c-0.586-1.006-1.313-1.986-2.18-2.939c0,2.372-0.105,3.764-0.316,4.177c-0.375,0.902-0.914,1.366-1.617,1.392
				c-1.102,0.078-2.109-0.245-3.023-0.967c-1.055-0.851-2.039-1.74-2.953-2.668c-0.023,0.206-0.047,0.399-0.07,0.58
				c-0.117,1.212-0.457,2.101-1.02,2.668c-0.305,0.232-0.645,0.349-1.02,0.349c-0.328-0.026-0.68-0.155-1.055-0.387
				c-0.82-0.619-1.23-1.509-1.23-2.669c0.023-0.181,0.082-0.348,0.176-0.502c0.188-0.284,0.434-0.773,0.738-1.47
				c0.234-0.619,0.504-1.174,0.809-1.663c-0.867-0.104-1.559-0.322-2.074-0.657c-0.75-0.722-1.113-1.405-1.09-2.05
				c0.023-0.489,0.188-0.863,0.492-1.121c0.328-0.258,0.609-0.335,0.844-0.232c0.445,0.129,1.172-0.013,2.18-0.426
				c0.117-0.077,0.258-0.128,0.422-0.154c-0.867-0.645-1.441-1.624-1.723-2.939c-0.211-0.851-0.176-1.598,0.105-2.242
				c0.094-0.258,0.188-0.438,0.281-0.542C2.076,36.107,1.783,35.501,1.76,34.934z M1.021,21.089c0.68-1.108,1.594-2.063,2.742-2.861
				c0.211-0.181,0.328-0.361,0.352-0.542c0.211-0.593,0.633-1.082,1.266-1.469c0.656-0.387,1.688-0.528,3.094-0.426
				c1.406,0.129,2.543,0.594,3.41,1.393c0.773,0.748,1.16,1.715,1.16,2.9c6.234-3.042,11.18-3.468,14.836-1.276
				c1.477,0.902,2.262,1.946,2.355,3.132c0.07,0.852-0.082,1.521-0.457,2.012c-0.586,0.567-1.523,0.761-2.813,0.58
				c-1.055-0.206-1.898-0.361-2.531-0.465c-1.336-0.36-2.953-0.219-4.852,0.426c-1.898,0.671-3.902,1.289-6.012,1.856
				c-1.641,0.387-3.34,0.928-5.098,1.624c-2.016,0.748-3.914,0.567-5.695-0.541C1.232,26.4,0.412,25.149,0.318,23.68
				C0.201,22.829,0.436,21.966,1.021,21.089z M9.881,21.669c-2.273-0.206-4.125,0.014-5.555,0.657
				c-0.586,0.207-0.914,0.439-0.984,0.696c0.047,0.464,0.398,0.787,1.055,0.967c0.727,0.181,1.98-0.244,3.762-1.276
				C8.721,22.326,9.295,21.979,9.881,21.669z M8.193,38.53c-1.477,0.052-2.426,0-2.848-0.155c0.07,0.594,0.188,1.083,0.352,1.47
				c0.211,0.31,0.398,0.451,0.563,0.426c0.188,0.025,0.469-0.168,0.844-0.58C7.455,39.304,7.818,38.917,8.193,38.53z M6.33,48.198
				c1.523,0.154,2.332,0.18,2.426,0.077c0.07-0.104,0.117-0.787,0.141-2.05c-0.844,0.155-1.664,0.323-2.461,0.503
				c0.023,0.566,0,1.044-0.07,1.431C6.342,48.159,6.33,48.172,6.33,48.198z M7.174,41.431c0.609-0.232,1.23-0.399,1.863-0.503
				c0.047-1.134,0-1.779-0.141-1.934c-0.469,0.49-1.02,1.276-1.652,2.359C7.221,41.379,7.197,41.405,7.174,41.431z M15.998,36.867
				c-1.359,0.335-2.285,0.58-2.777,0.734c0.164,0.465,0.281,1.238,0.352,2.32c0.586-0.67,1.313-1.56,2.18-2.668
				C15.846,37.1,15.928,36.971,15.998,36.867z M18.037,40.077c0.094-0.025,0.188-0.025,0.281,0c1.008,0.077,1.84,0.284,2.496,0.618
				c0.305-1.83,0.68-3.222,1.125-4.176c0.258-0.567,0.375-0.929,0.352-1.083c-0.047-0.129-0.117-0.232-0.211-0.31
				c-0.234-0.18-1.195,0.052-2.883,0.696c0,0.025,0,0.052,0,0.077c0.375,1.367,0.141,2.565-0.703,3.597
				C18.33,39.703,18.178,39.896,18.037,40.077z M29.041,42.32c-0.328-1.212-0.715-2.282-1.16-3.21
				c-1.195,3.48-1.652,5.466-1.371,5.955c0.188,0.387,0.539,0.567,1.055,0.542c0.422-0.078,0.785-0.284,1.09-0.619
				C29.193,44.318,29.322,43.429,29.041,42.32z"/>
			<linearGradient id="SVGID_2_" gradientUnits="userSpaceOnUse" x1="46.4512" y1="53.9658" x2="46.4512" y2="16.9287">
				<stop  offset="0" style="stop-color:#94E6FB;stop-opacity:0.1"/>
				<stop  offset="1" style="stop-color:#94E6FB;stop-opacity:0"/>
			</linearGradient>
			<path fill="url(#SVGID_2_)" d="M44.707,44.679c-0.262,4.383-0.916,7.193-1.969,8.431c-0.793,0.876-1.701,0.876-2.727,0
				c-0.715-0.696-1.119-1.251-1.209-1.663c-0.117-0.361-0.014-0.786,0.313-1.276c0.688-1.031,1.188-2.333,1.5-3.905
				c-0.105-0.025-0.182-0.039-0.234-0.039c-0.766-0.18-1.449-0.593-2.045-1.237c-0.508-0.67-0.768-1.47-0.779-2.397
				c-0.025-0.954,0.33-1.379,1.07-1.276c0.533,0.052,1.449-0.245,2.748-0.89c0.053-0.489,0.104-0.902,0.156-1.237
				c0.154-1.289,0.129-2.011-0.078-2.166c-0.145-0.128-0.26-0.309-0.352-0.541c-0.559,0.026-1-0.09-1.324-0.348
				c-0.922-0.748-1.391-1.56-1.402-2.437c-0.027-0.696,0.162-1.135,0.564-1.315c0.559-0.206,1.584-0.824,3.078-1.855
				c1.533-1.186,2.988-2.063,4.363-2.63c0.779-1.443,1.605-3.068,2.475-4.873c0.287-0.566,0.363-1.018,0.234-1.354
				c-0.793-1.03-2.033,0.464-3.721,4.486c-0.727,1.908-1.352,2.952-1.871,3.132c-0.727,0.207-1.623-0.348-2.689-1.662
				c-0.844-1.212-1.33-2.643-1.461-4.293c-0.154-1.289-0.129-2.333,0.078-3.133c0.182-0.773,0.494-1.275,0.936-1.508
				c0.326-0.154,0.67-0.025,1.033,0.387c0.545,0.594,0.877,1.521,0.992,2.784c0.066,0.825,0.125,1.47,0.176,1.934
				c0.039,0.387,0.125,0.619,0.254,0.696c0.104,0.077,0.215,0.026,0.332-0.154c0.727-1.108,1.643-2.565,2.746-4.37
				c0.883-1.495,1.76-2.41,2.631-2.746c0.674-0.31,1.369-0.373,2.084-0.193c0.701,0.181,1.266,0.632,1.695,1.354
				c0.416,0.645,0.67,1.405,0.76,2.282c0.039,1.366-0.338,3.532-1.131,6.496c0.262,0.104,0.494,0.232,0.703,0.387
				c1.154,0.929,1.758,2.089,1.811,3.48c0.039,1.213-0.123,2.102-0.486,2.669c-0.377,0.696-1.02,0.761-1.93,0.193
				c-0.311-0.181-0.629-0.283-0.955-0.31c0.078,0.722,0.123,1.792,0.137,3.21c1.117-0.025,1.994,0.129,2.631,0.464
				c0.961,0.645,1.461,1.74,1.5,3.287c0.025,1.495-0.143,2.488-0.506,2.978c-0.363,0.517-1.287,0.529-2.768,0.039
				c-0.246-0.129-0.486-0.206-0.721-0.232c0.053,0.903,0.104,1.792,0.156,2.669c0.168,3.583,0.09,5.813-0.234,6.689
				c-0.311,0.825-0.805,1.251-1.48,1.276c-0.637,0.052-1.109-0.271-1.422-0.967c-0.391-0.773-0.564-2.05-0.525-3.828
				c0.012-1.831,0.012-3.764,0-5.801C46.855,43.596,45.811,44.035,44.707,44.679z M47.551,34.547
				c-0.117-0.154-0.215-0.283-0.293-0.387c-1,0.31-1.916,0.734-2.746,1.276c0.182,0.645,0.271,1.701,0.271,3.171
				c1.117-0.593,2.131-1.019,3.041-1.276C47.836,35.655,47.746,34.728,47.551,34.547z"/>
			<linearGradient id="SVGID_3_" gradientUnits="userSpaceOnUse" x1="90.3965" y1="53.3428" x2="90.3965" y2="16.0234">
				<stop  offset="0" style="stop-color:#94E6FB;stop-opacity:0.1"/>
				<stop  offset="1" style="stop-color:#94E6FB;stop-opacity:0"/>
			</linearGradient>
			<path fill="url(#SVGID_3_)" d="M102.607,52.104c-0.656,0.852-1.699,1.264-3.129,1.238c-2.836-0.465-5.309-1.779-7.418-3.945
				c-0.914,0.155-1.863,0.349-2.848,0.58c-1.195,0.206-2.156-0.193-2.883-1.198c-0.773-1.006-1.242-2.526-1.406-4.563
				c-0.727-0.103-1.313-0.206-1.758-0.31c0.094,0.696,0.211,1.367,0.352,2.011c0.469,2.553,0.516,4.306,0.141,5.26
				c-0.422,0.902-1.172,1.34-2.25,1.314c-1.57,0.025-3.07-0.786-4.5-2.436c-0.867-1.006-1.477-2.141-1.828-3.403
				c-1.102-3.377-0.457-6.574,1.934-9.591c0.188-0.258,0.281-0.477,0.281-0.657s-0.152-0.322-0.457-0.426
				c-0.867-0.387-1.594-1.018-2.18-1.895c-0.258-0.412-0.434-0.813-0.527-1.199c-0.75-2.681,0.527-5.04,3.832-7.077
				c0.234-0.128,0.352-0.283,0.352-0.464c0-0.231-0.176-0.477-0.527-0.734c-1.688-1.47-2.52-2.759-2.496-3.867
				c0.07-0.979,0.422-1.817,1.055-2.514c0.586-0.67,1.348-0.967,2.285-0.89c1.453,0.104,2.742,0.941,3.867,2.514
				c1.172,1.624,1.723,2.914,1.652,3.867c0.047,1.341-0.352,2.372-1.195,3.094c0.023,2.011,0.047,3.919,0.07,5.724
				c0.328,0.516,0.48,1.083,0.457,1.701c0,0.542-0.176,1.135-0.527,1.779c0,0.181,0,0.322,0,0.425
				c-0.094,1.444-0.105,2.823-0.035,4.139c0.633-0.284,1.559-0.426,2.777-0.426c0.047-0.232,0.105-0.438,0.176-0.619
				c0.609-2.113,0.762-3.3,0.457-3.558c-1.313-1.108-1.969-2.101-1.969-2.978c-0.047-0.902,0.504-1.714,1.652-2.437
				c0.563-0.412,1.207-0.812,1.934-1.198c-1.406-0.438-2.391-1.251-2.953-2.437c-0.352-0.799-0.375-1.817-0.07-3.056
				c0.258-1.082,1.266-2.255,3.023-3.519c0.398-0.335,0.48-0.632,0.246-0.89c-0.375-0.36-0.563-0.786-0.563-1.276
				c0.023-0.696,0.258-1.237,0.703-1.624c0.422-0.335,1.102-0.516,2.039-0.541c1.313,0.025,2.297,0.283,2.953,0.773
				c0.727,0.567,1.195,1.212,1.406,1.934c0.422,1.443-0.316,2.436-2.215,2.978c-1.969,0.49-3.316,1.47-4.043,2.938
				c-0.211,0.49-0.164,0.852,0.141,1.083c0.375,0.31,0.984,0.026,1.828-0.851c4.289-4.77,7.523-7.063,9.703-6.884
				c1.219,0,2.438,0.657,3.656,1.973c1.242,1.47,1.863,2.72,1.863,3.751c-0.047,1.314-0.328,2.334-0.844,3.055
				c-0.633,0.773-1.594,1.213-2.883,1.315c-2.203,0.206-4.406,0.709-6.609,1.508c-2.883,1.006-5.145,2.102-6.785,3.287
				c-0.328,0.232-0.504,0.4-0.527,0.503c-0.023,0.052-0.023,0.154,0,0.31c0.305-0.206,0.668-0.181,1.09,0.077
				c0.445,0.207,0.926,0.039,1.441-0.503c3.961-3.042,7.242-4.099,9.844-3.171c1.313,0.567,2.355,1.482,3.129,2.746
				c0.563,0.928,0.844,2.32,0.844,4.176c1.313,0.439,2.086,1.058,2.32,1.856c0.352,1.16,0.199,2.102-0.457,2.823
				c-0.492,0.438-1.207,0.645-2.145,0.619c-0.07,0.695-0.117,1.237-0.141,1.624c-0.023,0.052-0.035,0.116-0.035,0.193
				c0.68,0.077,1.266,0.387,1.758,0.928c0.539,0.594,0.797,1.251,0.773,1.973c-0.07,0.566-0.328,1.096-0.773,1.585
				c-0.563,0.593-1.23,0.761-2.004,0.503c-0.047-0.025-0.082-0.038-0.105-0.038C103.416,50.454,103.1,51.459,102.607,52.104z
				 M81.83,27.509c-1.078,0.464-1.84,0.851-2.285,1.16c-0.375,0.231-0.551,0.425-0.527,0.58c0,0.206,0.152,0.361,0.457,0.464
				c0.82,0.387,1.523,0.825,2.109,1.314C81.654,29.867,81.736,28.694,81.83,27.509z M81.197,38.144
				c-1.313,1.366-1.957,2.565-1.934,3.597c0.164,0.645,0.398,1.082,0.703,1.314c0.352,0.31,0.609,0.426,0.773,0.348
				c0.258-0.025,0.387-0.244,0.387-0.657C81.104,41.328,81.127,39.794,81.197,38.144z M91.428,44.872
				c0.047-0.489,0.117-0.979,0.211-1.47c-1.031,0.284-1.91,0.517-2.637,0.696c0.023,0.336,0.047,0.542,0.07,0.619
				C89.494,45.208,90.279,45.259,91.428,44.872z M89.775,39.497c0.727-0.258,1.559-0.555,2.496-0.89
				c0.07-0.283,0.105-0.58,0.105-0.89c-1.383,0.181-2.18,0.271-2.391,0.271C89.939,38.428,89.869,38.93,89.775,39.497z M94.17,49.01
				c0.398,0.129,0.844,0.284,1.336,0.465c1.102,0.36,1.734,0.425,1.898,0.193c0.047-0.232,0.117-0.58,0.211-1.045
				C96.537,48.701,95.389,48.829,94.17,49.01z M98.354,43.712c0.07-0.516,0.117-1.005,0.141-1.47c0-0.128,0-0.244,0-0.348
				c-0.258-0.052-0.926,0.039-2.004,0.271c-0.047,0.542-0.082,1.097-0.105,1.663C97.041,43.751,97.697,43.712,98.354,43.712z
				 M98.775,33.89c-0.445-0.181-0.855-0.193-1.23-0.039c-0.234,0.077-0.504,0.245-0.809,0.503c0.305,0.567,0.422,1.47,0.352,2.707
				c0.68-0.206,1.336-0.322,1.969-0.348C99.244,35.166,99.15,34.225,98.775,33.89z M101.729,22.752
				c-0.117-0.335-0.328-0.541-0.633-0.619c-0.234-0.18-0.504-0.219-0.809-0.115c-0.398,0.154-1.301,1.237-2.707,3.248
				c1.172-0.566,2.473-1.173,3.902-1.817C101.717,23.165,101.799,22.933,101.729,22.752z"/>
			<linearGradient id="SVGID_4_" gradientUnits="userSpaceOnUse" x1="126.6445" y1="51.2969" x2="126.6445" y2="17.4805">
				<stop  offset="0" style="stop-color:#94E6FB;stop-opacity:0.1"/>
				<stop  offset="1" style="stop-color:#94E6FB;stop-opacity:0"/>
			</linearGradient>
			<path fill="url(#SVGID_4_)" d="M124.758,38.104c-2.672,4.718-4.289,7.812-4.852,9.281c-0.609,1.47-1.523,2.449-2.742,2.939
				c-1.008,0.387-2.051,0.373-3.129-0.039c-1.078-0.516-1.98-1.198-2.707-2.05c-0.68-0.876-1.02-1.74-1.02-2.591
				c0.047-0.799,0.387-1.25,1.02-1.354c1.008-0.231,2.016-1.354,3.023-3.364c0.938-1.934,2.086-4.034,3.445-6.304
				c2.25-4.047,4.043-6.961,5.379-8.739c1.359-1.65,1.652-2.823,0.879-3.52c-0.703-0.645-1.102-1.327-1.195-2.05
				c-0.094-0.722,0.047-1.354,0.422-1.895c0.539-0.696,1.242-1.006,2.109-0.929c1.078,0.026,2.191,0.71,3.34,2.05
				c1.078,1.187,1.699,2.721,1.863,4.603c0.117,1.599-0.633,3.982-2.25,7.154c-0.398,0.748-0.773,1.482-1.125,2.204
				c1.125,0.31,2.355,0.734,3.691,1.276c5.039,2.217,8.484,4.718,10.336,7.502c1.406,2.475,1.957,4.383,1.652,5.724
				c-0.305,1.314-0.809,2.217-1.512,2.707c-0.82,0.566-1.758,0.722-2.813,0.464c-1.148-0.31-2.473-1.599-3.973-3.867
				C132.117,43.596,128.836,40.528,124.758,38.104z"/>
		</g>
	</g>
	<g>
		<g>
			
				<linearGradient id="SVGID_5_" gradientUnits="userSpaceOnUse" x1="141.3271" y1="20.8848" x2="144.8293" y2="13.4193" gradientTransform="matrix(0.9964 0.0849 -0.0849 0.9964 0.6914 -8.7759)">
				<stop  offset="0" style="stop-color:#94E6FB;stop-opacity:0.5"/>
				<stop  offset="1" style="stop-color:#94E6FB"/>
			</linearGradient>
			<path fill="url(#SVGID_5_)" d="M141.447,24.571c-0.951-0.081-1.852-0.494-2.533-1.163c-1.625-1.59-1.652-4.205-0.063-5.831
				c0.865-0.883,2.066-1.328,3.299-1.224c0.951,0.081,1.85,0.494,2.533,1.163c0.787,0.77,1.229,1.8,1.24,2.901
				c0.01,1.102-0.408,2.143-1.178,2.929C143.881,24.23,142.678,24.676,141.447,24.571z M142.086,17.102
				c-1.008-0.086-1.99,0.278-2.699,1c-0.629,0.645-0.971,1.496-0.963,2.396c0.01,0.901,0.369,1.744,1.014,2.375
				c0.559,0.547,1.295,0.885,2.072,0.95c1.008,0.086,1.992-0.279,2.701-1.001c0.629-0.644,0.971-1.495,0.963-2.396
				c-0.01-0.901-0.371-1.744-1.014-2.375C143.602,17.505,142.863,17.167,142.086,17.102z"/>
		</g>
		<g>
			
				<linearGradient id="SVGID_6_" gradientUnits="userSpaceOnUse" x1="152.7246" y1="18.9551" x2="154.8214" y2="14.4854" gradientTransform="matrix(0.9964 0.0849 -0.0849 0.9964 0.6914 -8.7759)">
				<stop  offset="0" style="stop-color:#94E6FB;stop-opacity:0.5"/>
				<stop  offset="1" style="stop-color:#94E6FB"/>
			</linearGradient>
			<path fill="url(#SVGID_6_)" d="M152.281,23.401c-0.57-0.049-1.107-0.296-1.518-0.695c-0.973-0.956-0.99-2.523-0.037-3.497
				c0.918-0.937,2.559-0.957,3.496-0.036c0.975,0.954,0.988,2.521,0.035,3.495C153.74,23.197,153.021,23.464,152.281,23.401z
				 M152.641,19.224c-0.516-0.044-1.018,0.143-1.379,0.511c-0.664,0.679-0.652,1.771,0.027,2.436
				c0.654,0.639,1.797,0.624,2.434-0.026c0.664-0.679,0.652-1.771-0.025-2.436C153.412,19.429,153.037,19.257,152.641,19.224z"/>
		</g>
		<g>
			
				<linearGradient id="SVGID_7_" gradientUnits="userSpaceOnUse" x1="149.3975" y1="6.6572" x2="151.8577" y2="1.4127" gradientTransform="matrix(0.9964 0.0849 -0.0849 0.9964 0.6914 -8.7759)">
				<stop  offset="0" style="stop-color:#94E6FB;stop-opacity:0.5"/>
				<stop  offset="1" style="stop-color:#94E6FB"/>
			</linearGradient>
			<path fill="url(#SVGID_7_)" d="M150.189,10.922c-0.668-0.057-1.301-0.348-1.779-0.818c-0.555-0.54-0.863-1.264-0.871-2.038
				c-0.008-0.773,0.285-1.504,0.826-2.057c0.607-0.621,1.453-0.935,2.318-0.86c0.668,0.057,1.299,0.347,1.777,0.815
				c1.143,1.118,1.162,2.956,0.045,4.097C151.898,10.682,151.055,10.995,150.189,10.922z M150.621,5.896
				c-0.643-0.055-1.27,0.177-1.721,0.638c-0.4,0.409-0.617,0.952-0.611,1.524c0.006,0.573,0.234,1.109,0.645,1.511
				c0.818,0.803,2.24,0.782,3.037-0.031c0.828-0.847,0.813-2.209-0.033-3.037C151.582,6.151,151.115,5.938,150.621,5.896z"/>
		</g>
	</g>
</g>
</svg>
