<?xml version="1.0" encoding="utf-8"?>
<!-- Generator: Adobe Illustrator 16.0.0, SVG Export Plug-In . SVG Version: 6.00 Build 0)  -->
<!DOCTYPE svg PUBLIC "-//W3C//DTD SVG 1.1//EN" "http://www.w3.org/Graphics/SVG/1.1/DTD/svg11.dtd">
<svg version="1.1" id="圖層_1" xmlns="http://www.w3.org/2000/svg" xmlns:xlink="http://www.w3.org/1999/xlink" x="0px" y="0px"
	 width="100px" height="100px" viewBox="0 0 100 100" enable-background="new 0 0 100 100" xml:space="preserve">
<g>
	<g>
		<path fill="#E5FAFF" d="M50,72.5c-0.179,0-0.358-0.052-0.513-0.156c-0.737-0.491-18.065-12.203-18.065-26.267
			C31.422,35.833,39.757,27.5,50,27.5s18.578,8.333,18.578,18.577c0,14.064-17.328,25.776-18.065,26.267
			C50.358,72.448,50.179,72.5,50,72.5z M50,29.349c-9.224,0-16.728,7.504-16.728,16.728c0,11.78,13.861,22.319,16.728,24.371
			c2.866-2.052,16.728-12.591,16.728-24.371C66.728,36.853,59.224,29.349,50,29.349z"/>
	</g>
	<g>
		<path fill="#E5FAFF" d="M50,52.886c-3.755,0-6.81-3.054-6.81-6.809c0-3.754,3.055-6.809,6.81-6.809s6.81,3.055,6.81,6.809
			C56.81,49.832,53.755,52.886,50,52.886z M50,41.118c-2.735,0-4.959,2.225-4.959,4.959c0,2.735,2.224,4.959,4.959,4.959
			s4.959-2.225,4.959-4.959C54.959,43.342,52.735,41.118,50,41.118z"/>
	</g>
</g>
</svg>
