<?xml version="1.0" encoding="utf-8"?>
<!-- Generator: Adobe Illustrator 16.0.0, SVG Export Plug-In . SVG Version: 6.00 Build 0)  -->
<!DOCTYPE svg PUBLIC "-//W3C//DTD SVG 1.1//EN" "http://www.w3.org/Graphics/SVG/1.1/DTD/svg11.dtd">
<svg version="1.1" id="圖層_1" xmlns="http://www.w3.org/2000/svg" xmlns:xlink="http://www.w3.org/1999/xlink" x="0px" y="0px"
	 width="100px" height="100px" viewBox="0 0 100 100" enable-background="new 0 0 100 100" xml:space="preserve">
<g>
	<path fill="#E5FAFF" d="M67.949,25.211c-1.105,0.486-1.321,0.755-2.696,3.965c-1.403,3.155-1.43,4.126-0.217,3.964
		c0.622-0.081,0.864-0.405,1.889-2.751c0.619-1.457,1.294-2.832,1.456-3.021c0.433-0.512,0.837-0.485,3.371,0.296
		c1.646,0.513,2.266,0.836,2.4,1.241c0.297,0.917-0.35,1.402-1.617,1.187c-0.594-0.108-1.511-0.215-2.023-0.243l-0.916-0.027
		l-2.995,6.985l-2.967,6.985l-7.552,2.94l-7.552,2.967l-4.584,0.646c-5.53,0.783-5.53,0.783-5.53,1.592
		c0,0.782,0.082,0.835,3.048,2.049l2.4,0.944l3.749,4.127c2.076,2.292,3.885,4.369,4.046,4.64c0.378,0.7-0.621,1.726-1.35,1.348
		c-0.269-0.162-2.13-2.077-4.126-4.261l-3.668-3.992l-5.609-2.267c-3.103-1.24-5.907-2.428-6.258-2.643
		c-0.674-0.404-0.782-1.214-0.215-1.672c0.215-0.188,4.126-0.809,8.711-1.429l8.307-1.106l7.147-2.751
		c4.586-1.78,7.256-2.939,7.472-3.29c0.216-0.296,0.782-1.538,1.294-2.778c0.944-2.373,0.918-3.236-0.106-3.236
		c-0.675,0-0.892,0.324-1.916,2.75l-0.862,2.077l-3.534,1.403c-1.969,0.755-4.315,1.672-5.26,2.022l-1.673,0.647l0.163-1.052
		c0.433-2.724-2.104-5.664-4.936-5.691c-0.809,0-1.698,0.567-1.698,1.079c0,0.54,0.917,1.08,1.807,1.08
		c0.728,0,1.159,0.215,1.86,0.917c1.187,1.187,1.268,2.669,0.243,3.91c-0.728,0.863-1.861,1.187-5.152,1.537l-1.645,0.163
		l-0.377-2.914c-0.351-2.75-0.351-2.966,0.108-3.425c0.378-0.378,0.404-0.593,0.162-1.052c-0.27-0.512-0.458-0.539-2.238-0.377
		c-1.052,0.108-3.884,0.458-6.284,0.809c-3.614,0.513-4.585,0.756-5.448,1.322c-1.889,1.268-2.671,3.884-1.781,6.042
		c0.54,1.294,1.107,1.915,2.32,2.535c0.782,0.378,0.971,0.621,0.863,1.106c-0.053,0.351,0.27,3.155,0.702,6.257l0.783,5.638
		l-2.132,4.287c-2.535,5.125-2.67,5.935-1.213,7.391C26.818,74.785,27.25,75,28.004,75c1.565,0,2.401-0.62,3.345-2.373
		c0.998-1.889,1.052-2.347,0.296-2.751c-0.702-0.405-1.159-0.027-1.996,1.646c-0.674,1.295-1.186,1.699-1.888,1.43
		c-0.863-0.352-0.62-1.188,1.484-5.557c1.187-2.481,2.157-4.828,2.157-5.259c-0.027-0.404-0.243-2.348-0.512-4.262
		c-0.297-1.942-0.458-3.56-0.404-3.614c0.107-0.107,1.752,0.484,2.049,0.754c0.108,0.082,0.432,1.916,0.729,4.074l0.539,3.91
		l-0.835,1.807c-0.836,1.809-0.863,2.509-0.081,2.806c0.62,0.242,1.187-0.351,2.05-2.266c0.89-1.969,0.943-2.67,0.377-6.257
		c-0.216-1.403-0.405-2.697-0.405-2.888c0-0.188,1.349,0.244,3.291,1.053l3.317,1.349l3.371,3.776
		c3.561,3.991,4.532,4.801,5.745,4.801c2.293,0,3.885-2.563,2.806-4.504c-0.62-1.105-8.092-9.063-9.063-9.63l-0.971-0.565
		l2.157-0.27c2.158-0.27,2.158-0.27,10.169,1.672c6.122,1.483,8.198,1.889,8.819,1.699c0.404-0.108,3.075-1.807,5.905-3.75
		c2.806-1.94,5.233-3.532,5.368-3.532c0.136,0,0.756,0.377,1.375,0.836c1.996,1.457,4.154,1.322,5.206-0.351
		c0.404-0.647,0.513-1.187,0.404-1.969c-0.135-1.241-1.268-2.428-4.233-4.397c-2.698-1.833-2.994-1.752-9.414,2.67
		c-2.886,2.023-5.421,3.749-5.609,3.856c-0.379,0.216-4.908-0.62-4.908-0.917c0-0.081,1.321-0.647,2.938-1.294
		c1.591-0.621,3.156-1.43,3.479-1.753c0.298-0.324,1.727-3.398,3.155-6.797c1.43-3.425,2.644-6.23,2.671-6.257
		c0.027-0.027,0.54,0.054,1.106,0.216c2.238,0.62,4.18-0.782,4.18-3.048c0-1.618-0.971-2.508-3.588-3.263
		C69.514,24.915,68.866,24.834,67.949,25.211z M37.876,40.936c0,0.135,0.188,1.429,0.404,2.913c0.189,1.483,0.297,2.778,0.189,2.886
		c-0.108,0.107-0.971,0.216-1.941,0.27l-1.727,0.081l-0.377-2.778c-0.189-1.537-0.297-2.859-0.216-2.94
		c0.054-0.081,0.783-0.242,1.563-0.351C37.795,40.72,37.876,40.72,37.876,40.936z M32.428,44.361
		c0.189,1.483,0.297,2.832,0.216,2.993c-0.054,0.189-0.917,0.404-1.888,0.513c-2.752,0.27-4.208-0.729-4.208-2.967
		c0-1.861,1.051-2.751,3.775-3.183C32.024,41.448,32.024,41.476,32.428,44.361z M78.388,44.792c2.319,1.619,2.751,2.104,2.48,2.832
		c-0.351,0.891-1.186,0.729-3.074-0.566c-1.024-0.674-2.022-1.187-2.211-1.133c-0.189,0.081-2.778,1.833-5.745,3.857
		c-2.968,2.048-5.583,3.775-5.799,3.83c-0.351,0.08-10.977-2.347-12.137-2.778c-0.243-0.082,0.296-0.404,1.347-0.809l1.755-0.675
		l4.046,0.972c2.211,0.512,4.208,0.943,4.396,0.943c0.188,0,2.859-1.726,5.907-3.856c5.097-3.506,6.122-4.154,6.581-4.208
		C76.014,43.175,77.12,43.903,78.388,44.792z"/>
	<path fill="#E5FAFF" d="M21.047,47.813c-3.103,0.674-4.774,4.152-3.426,7.12c0.271,0.594,0.81,1.349,1.187,1.646
		c0.486,0.378,0.782,0.918,0.89,1.699c0.243,1.563,0.89,2.157,2.347,2.157c1.592,0,3.102-0.485,3.425-1.078
		c0.135-0.27,0.27-0.998,0.27-1.619c0-0.729,0.243-1.456,0.755-2.211c1.052-1.592,1.052-3.966-0.027-5.556
		C25.308,48.218,23.123,47.328,21.047,47.813z M23.582,50.052c1.078,0.566,1.618,1.429,1.618,2.642c0,2.698-3.291,4.154-5.097,2.239
		C17.702,52.397,20.507,48.461,23.582,50.052z M23.852,58.009c0,0.135-0.215,0.27-0.458,0.27c-0.271,0-0.755,0.081-1.079,0.161
		c-0.432,0.109-0.62,0.055-0.62-0.216c0-0.242,0.35-0.404,1.078-0.432C23.393,57.738,23.852,57.847,23.852,58.009z"/>
</g>
</svg>
